<svg width="14" height="20" viewBox="0 0 14 20" fill="none" xmlns="http://www.w3.org/2000/svg">
<path d="M13.25 9C13.6297 9 13.9435 9.28215 13.9932 9.64823L14 9.75V10.25C14 13.8094 11.245 16.7254 7.75098 16.9817L7.75 19.25C7.75 19.6642 7.41421 20 7 20C6.6203 20 6.30651 19.7178 6.25685 19.3518L6.25 19.25L6.25002 16.9818C2.83323 16.7316 0.122835 13.938 0.00406027 10.4863L0 10.25V9.75C0 9.33579 0.335786 9 0.75 9C1.1297 9 1.44349 9.28215 1.49315 9.64823L1.5 9.75V10.25C1.5 13.077 3.73445 15.3821 6.5336 15.4956L6.75 15.5H7.25C10.077 15.5 12.3821 13.2656 12.4956 10.4664L12.5 10.25V9.75C12.5 9.33579 12.8358 9 13.25 9ZM7 0C9.20914 0 11 1.79086 11 4V10C11 12.2091 9.20914 14 7 14C4.79086 14 3 12.2091 3 10V4C3 1.79086 4.79086 0 7 0Z" fill="white"/>
<path d="M7 4H11V10C11 12.2091 9.20914 14 7 14C4.79086 14 3 12.2091 3 10C3 10 3 6.20914 3 4H7Z" fill="#12B76A"/>
</svg>

