<svg width="24" height="24" viewBox="0 0 24 24" fill="none" xmlns="http://www.w3.org/2000/svg">
<path d="M11.0004 17.5C11.0004 16.2111 11.3755 15.0098 12.0226 13.9993L4.25278 13.9999C3.01076 13.9999 2.00391 15.0068 2.00391 16.2488V17.1688C2.00391 17.7409 2.18231 18.2987 2.51427 18.7646C4.05643 20.9289 6.5794 22.0011 10.0004 22.0011C10.9317 22.0011 11.7966 21.9216 12.5921 21.7615C11.6006 20.6205 11.0004 19.1303 11.0004 17.5ZM15.0004 7.00464C15.0004 4.24321 12.7618 2.00464 10.0004 2.00464C7.23894 2.00464 5.00036 4.24321 5.00036 7.00464C5.00036 9.76606 7.23894 12.0046 10.0004 12.0046C12.7618 12.0046 15.0004 9.76606 15.0004 7.00464ZM23.0004 17.5C23.0004 14.4624 20.5379 12 17.5004 12C14.4628 12 12.0004 14.4624 12.0004 17.5C12.0004 20.5376 14.4628 23 17.5004 23C20.5379 23 23.0004 20.5376 23.0004 17.5ZM17.4105 14.008L17.5004 14L17.5902 14.008C17.7943 14.0451 17.9553 14.206 17.9923 14.4101L18.0004 14.5L17.9994 17H20.5043L20.5942 17.0081C20.7982 17.0451 20.9592 17.206 20.9962 17.4101L21.0043 17.5L20.9962 17.5899C20.9592 17.794 20.7982 17.9549 20.5942 17.9919L20.5043 18H17.9994L18.0004 20.5L17.9923 20.5899C17.9553 20.794 17.7943 20.9549 17.5902 20.9919L17.5004 21L17.4105 20.9919C17.2064 20.9549 17.0455 20.794 17.0084 20.5899L17.0004 20.5L16.9994 18H14.5043L14.4144 17.9919C14.2103 17.9549 14.0494 17.794 14.0123 17.5899L14.0043 17.5L14.0123 17.4101C14.0494 17.206 14.2103 17.0451 14.4144 17.0081L14.5043 17H16.9994L17.0004 14.5L17.0084 14.4101C17.0455 14.206 17.2064 14.0451 17.4105 14.008Z" fill="#70707B"/>
</svg>
