<svg width="16" height="16" viewBox="0 0 16 16" fill="none" xmlns="http://www.w3.org/2000/svg">
<path fill-rule="evenodd" clip-rule="evenodd" d="M8.16739 1.33531C8.11172 1.33395 8.05592 1.33325 7.99992 1.33325C4.31792 1.33325 1.33325 4.31792 1.33325 7.99992C1.33325 11.6813 4.31792 14.6666 7.99992 14.6666C11.6819 14.6666 14.6666 11.6813 14.6666 7.99992C14.6666 7.94392 14.6659 7.88812 14.6645 7.83245C14.239 7.94179 13.7929 7.99992 13.3333 7.99992C10.3877 7.99992 7.99992 5.61211 7.99992 2.66659C7.99992 2.20693 8.05805 1.76085 8.16739 1.33531ZM6.66659 5.33325C6.66659 4.59725 6.06925 3.99992 5.33325 3.99992C4.59725 3.99992 3.99992 4.59725 3.99992 5.33325C3.99992 6.06992 4.59725 6.66659 5.33325 6.66659C6.06925 6.66659 6.66659 6.06992 6.66659 5.33325ZM7.99992 12.6666C10.0933 12.6666 11.9999 11.0779 11.9999 9.33325V8.66659H3.99992V9.33325C3.99992 11.0779 5.90659 12.6666 7.99992 12.6666Z" fill="#78787C"/>
<path d="M14.0001 2V0H12.6667V2H10.6667V3.33333H12.6667V5.33333H14.0001V3.33333H16.0001V2H14.0001Z" fill="#78787C"/>
</svg>
