<svg width="22" height="22" viewBox="0 0 22 22" fill="none" xmlns="http://www.w3.org/2000/svg">
<path fill-rule="evenodd" clip-rule="evenodd" d="M20.9663 14.3136C21.3125 13.2719 21.4999 12.1578 21.4999 10.9999C21.4999 5.20098 16.7989 0.5 10.9999 0.5C5.20098 0.5 0.5 5.20098 0.5 10.9999C0.5 12.1807 0.694902 13.3159 1.05429 14.3752C1.32395 14.3815 1.57876 14.3934 1.80817 14.4041C2.14992 14.4201 2.41759 14.4325 2.63488 14.4281L2.64317 14.428L2.72632 12.7465L2.72713 12.73L2.7286 12.7134L2.81793 11.7098L2.82096 11.6758L2.82674 11.6421L2.92757 11.0544C3.03194 10.4459 3.32484 9.88571 3.76488 9.4528C4.1382 9.08554 4.58512 8.83866 5.05767 8.71142C4.57269 8.45646 4.24194 7.94774 4.24194 7.36177C4.24194 6.5202 4.92418 5.83797 5.76575 5.83797C6.60733 5.83797 7.28956 6.5202 7.28956 7.36177C7.28956 7.93178 6.97659 8.42869 6.51311 8.69003C6.91875 8.78627 7.30791 8.96903 7.65078 9.23787C7.80273 9.00974 7.97847 8.79658 8.17598 8.60225C8.76559 8.02211 9.49046 7.66243 10.2484 7.52186C9.60152 7.23694 9.1499 6.5902 9.1499 5.83798C9.1499 4.82228 9.97329 3.9989 10.989 3.9989C12.0047 3.9989 12.8281 4.82228 12.8281 5.83798C12.8281 6.59098 12.3755 7.23828 11.7276 7.52274C12.4786 7.66272 13.1975 8.01694 13.7849 8.58411C13.9882 8.78046 14.1696 8.99691 14.3265 9.22923C14.6626 8.93881 15.0493 8.73628 15.4558 8.6221C14.9971 8.35949 14.6879 7.86519 14.6879 7.29869C14.6879 6.45712 15.3702 5.77489 16.2117 5.77489C17.0533 5.77489 17.7355 6.45712 17.7355 7.29869C17.7355 7.85303 17.4395 8.33823 16.997 8.60486C17.4811 8.72949 17.9396 8.97911 18.3212 9.35452C18.7613 9.78743 19.0542 10.3477 19.1586 10.9561L19.2594 11.5438L19.2654 11.5787L19.2684 11.6139L19.3893 13.0169L19.3899 13.0244L19.3904 13.032L19.4782 14.3227C19.5027 14.3244 19.5291 14.3259 19.5578 14.3272C19.847 14.3406 20.173 14.3326 20.5712 14.3227C20.6955 14.3196 20.8268 14.3164 20.9663 14.3136ZM20.2271 16.0149C19.946 16.0193 19.6895 16.0199 19.4797 16.0102C19.2 15.9972 18.8569 15.9646 18.5628 15.8394C18.4045 15.7721 18.2128 15.6586 18.0603 15.4622C17.9324 15.2975 17.8605 15.1111 17.8356 14.922L17.8304 14.9224L17.7101 13.1539L17.5929 11.7938L17.4981 11.2409C17.4534 10.9805 17.328 10.7408 17.1397 10.5555C16.6553 10.079 15.8693 10.0751 15.3747 10.5527C15.2011 10.7202 15.0785 10.934 15.0213 11.1659L15.11 11.6869L15.1118 11.6974L15.1133 11.708L15.2875 12.9164L15.2879 12.9189L15.4169 13.8332L15.4251 13.8918V13.9509V14.8442H15.4253C15.4253 15.2006 15.2977 15.55 15.0219 15.8037C14.758 16.0466 14.427 16.1381 14.131 16.127C13.5482 16.1052 12.9111 15.6548 12.9 14.8652H12.8997V13.993V13.9342L12.9079 13.876L13.0655 12.7515L13.0655 12.7515L13.0664 12.7452L13.2398 11.5734L13.2412 11.5644L13.2427 11.5555L13.3107 11.1558L13.2997 11.0914C13.2161 10.5999 12.9748 10.1439 12.6146 9.79604C11.7039 8.91661 10.2543 8.92083 9.35759 9.80316C9.03952 10.1161 8.81876 10.5133 8.72036 10.9467C8.72924 10.988 8.73725 11.0296 8.74436 11.0714L8.84343 11.6537L8.84848 11.6834L8.85139 11.7134L8.96567 12.8873L9.09527 13.8826L9.10232 13.9368V13.9914V14.9388H9.10418C9.10418 15.2934 8.97811 15.6423 8.70359 15.8965C8.44032 16.1403 8.10921 16.2328 7.81232 16.2216C7.22604 16.1995 6.59515 15.7449 6.5841 14.9597H6.57846V13.9614V13.9042L6.58618 13.8476L6.71229 12.9228L6.71229 12.9228L6.87918 11.6986L6.88114 11.6842L6.88359 11.67L6.99026 11.048C6.92391 10.9002 6.82943 10.7649 6.7114 10.6509C6.21682 10.1734 5.4308 10.1773 4.9464 10.6538C4.75808 10.8391 4.63273 11.0788 4.58807 11.3392L4.49302 11.8932L4.4082 12.8463L4.31546 14.7216V14.932H4.30823C4.29701 15.1382 4.2344 15.3528 4.09602 15.5461C3.94759 15.7535 3.75464 15.8768 3.58694 15.9504C3.28189 16.0842 2.93222 16.1072 2.66881 16.1126C2.4079 16.1178 2.1095 16.1048 1.81464 16.091C3.60644 19.3169 7.04825 21.4999 10.9999 21.4999C14.9826 21.4999 18.4474 19.2825 20.2271 16.0149ZM10.989 5.6094C10.8627 5.6094 10.7604 5.71174 10.7604 5.83798C10.7604 5.96422 10.8627 6.06656 10.989 6.06656C11.1152 6.06656 11.2176 5.96422 11.2176 5.83798C11.2176 5.71174 11.1152 5.6094 10.989 5.6094ZM16.2117 7.10712C16.1059 7.10712 16.0202 7.19289 16.0202 7.29869C16.0202 7.4045 16.1059 7.49027 16.2117 7.49027C16.3175 7.49027 16.4033 7.4045 16.4033 7.29869C16.4033 7.19289 16.3175 7.10712 16.2117 7.10712ZM19.5103 14.7677H19.5085L19.5026 14.6811C19.5079 14.7114 19.5103 14.7406 19.5103 14.7677ZM2.63071 14.863V14.7963C2.62689 14.821 2.62535 14.8435 2.62535 14.863H2.63071ZM5.57417 7.36177C5.57417 7.25597 5.65994 7.1702 5.76575 7.1702C5.87156 7.1702 5.95733 7.25597 5.95733 7.36177C5.95733 7.46758 5.87156 7.55335 5.76575 7.55335C5.65994 7.55335 5.57417 7.46758 5.57417 7.36177Z" fill="url(#paint0_linear_10204_30993)"/>
<defs>
<linearGradient id="paint0_linear_10204_30993" x1="4.77145" y1="15.5437" x2="14.8698" y2="7.57937" gradientUnits="userSpaceOnUse">
<stop stop-color="#056CF2"/>
<stop offset="1" stop-color="#4ECCC6"/>
</linearGradient>
</defs>
</svg>
