<svg width="16" height="16" viewBox="0 0 16 16" fill="#475467" xmlns="http://www.w3.org/2000/svg">
<mask id="mask0_18505_74130" style="mask-type:alpha" maskUnits="userSpaceOnUse" x="0" y="0" width="16" height="16">
<rect width="16" height="16" fill="#D9D9D9"/>
</mask>
<g mask="url(#mask0_18505_74130)">
<path d="M4.76666 14.0667C4.6 13.9 4.51666 13.7028 4.51666 13.475C4.51666 13.2472 4.6 13.05 4.76666 12.8834L9.65 8.00002L4.75 3.10002C4.59444 2.94446 4.51666 2.75002 4.51666 2.51669C4.51666 2.28335 4.6 2.08335 4.76666 1.91669C4.93333 1.75002 5.13055 1.66669 5.35833 1.66669C5.58611 1.66669 5.78333 1.75002 5.95 1.91669L11.55 7.53335C11.6167 7.60002 11.6639 7.67224 11.6917 7.75002C11.7194 7.8278 11.7333 7.91113 11.7333 8.00002C11.7333 8.08891 11.7194 8.17224 11.6917 8.25002C11.6639 8.3278 11.6167 8.40002 11.55 8.46669L5.93333 14.0834C5.77777 14.2389 5.58611 14.3167 5.35833 14.3167C5.13055 14.3167 4.93333 14.2334 4.76666 14.0667Z"/>
</g>
</svg>
