<svg width="24" height="24" viewBox="0 0 24 24" fill="none" xmlns="http://www.w3.org/2000/svg">
<path d="M21 7.5C21 9.98528 18.9853 12 16.5 12C14.0147 12 12 9.98528 12 7.5C12 5.01472 14.0147 3 16.5 3C18.9853 3 21 5.01472 21 7.5ZM17 5.5C17 5.22386 16.7761 5 16.5 5C16.2239 5 16 5.22386 16 5.5V7H14.5C14.2239 7 14 7.22386 14 7.5C14 7.77614 14.2239 8 14.5 8H16V9.5C16 9.77614 16.2239 10 16.5 10C16.7761 10 17 9.77614 17 9.5V8H18.5C18.7761 8 19 7.77614 19 7.5C19 7.22386 18.7761 7 18.5 7H17V5.5ZM16.5 13C17.02 13 17.5232 12.9278 18 12.793V19.5C18 19.6881 17.8945 19.8602 17.7269 19.9456C17.5593 20.0309 17.358 20.015 17.2059 19.9044L12 16.1183L6.79409 19.9044C6.64199 20.015 6.4407 20.0309 6.27311 19.9456C6.10553 19.8602 6 19.6881 6 19.5V6.5C6 5.11929 7.11929 4 8.5 4H12.2572C11.4718 4.95094 11 6.17037 11 7.5C11 10.5376 13.4624 13 16.5 13Z" fill="#667085"/>
</svg>
