<svg width="24" height="24" viewBox="0 0 24 24" fill="#70707B" xmlns="http://www.w3.org/2000/svg">
<path d="M11.25 2.75C11.25 2.19772 11.6977 1.75 12.25 1.75C12.8023 1.75 13.25 2.19772 13.25 2.75V4H16.5C18.1569 4 19.5 5.34315 19.5 7V9C20.6046 9 21.5 9.89543 21.5 11V13C21.5 14.1046 20.6046 15 19.5 15V17C19.5 18.6569 18.1569 20 16.5 20H8C6.34315 20 5 18.6569 5 17V15C3.89543 15 3 14.1046 3 13V11C3 9.89543 3.89543 9 5 9V7C5 5.34315 6.34315 4 8 4H11.25V2.75ZM8 6C7.44772 6 7 6.44772 7 7V17C7 17.5523 7.44772 18 8 18H16.5C17.0523 18 17.5 17.5523 17.5 17V7C17.5 6.44772 17.0523 6 16.5 6H8ZM9.75 9.5C10.4404 9.5 11 10.0596 11 10.75C11 11.4404 10.4404 12 9.75 12C9.05964 12 8.5 11.4404 8.5 10.75C8.5 10.0596 9.05964 9.5 9.75 9.5ZM14.75 9.5C15.4404 9.5 16 10.0596 16 10.75C16 11.4404 15.4404 12 14.75 12C14.0596 12 13.5 11.4404 13.5 10.75C13.5 10.0596 14.0596 9.5 14.75 9.5ZM9 14.5H15.5V16H9V14.5Z" />
</svg>
