<svg width="16" height="16" viewBox="0 0 16 16" fill="none" xmlns="http://www.w3.org/2000/svg">
    <circle cx="8" cy="8" r="8" fill="#155EEF" />
    <mask id="mask0_19353_2918" style="mask-type:alpha" maskUnits="userSpaceOnUse" x="2" y="2" width="12" height="12">
        <rect x="2" y="2" width="12" height="12" fill="#D9D9D9" />
    </mask>
    <g mask="url(#mask0_19353_2918)">
        <path
            d="M4.5 12.5C4.35833 12.5 4.23958 12.4521 4.14375 12.3562C4.04792 12.2604 4 12.1417 4 12V10C4 9.725 4.09792 9.48958 4.29375 9.29375C4.48958 9.09792 4.725 9 5 9H11C11.275 9 11.5104 9.09792 11.7062 9.29375C11.9021 9.48958 12 9.725 12 10V12C12 12.1417 11.9521 12.2604 11.8562 12.3562C11.7604 12.4521 11.6417 12.5 11.5 12.5H4.5ZM6.5 8.5C5.80833 8.5 5.21875 8.25625 4.73125 7.76875C4.24375 7.28125 4 6.69167 4 6C4 5.30833 4.24375 4.71875 4.73125 4.23125C5.21875 3.74375 5.80833 3.5 6.5 3.5H9.5C10.1917 3.5 10.7812 3.74375 11.2687 4.23125C11.7562 4.71875 12 5.30833 12 6C12 6.69167 11.7562 7.28125 11.2687 7.76875C10.7812 8.25625 10.1917 8.5 9.5 8.5H6.5ZM5 11.5H11V10H5V11.5ZM6.5 7.5H9.5C9.91667 7.5 10.2708 7.35417 10.5625 7.0625C10.8542 6.77083 11 6.41667 11 6C11 5.58333 10.8542 5.22917 10.5625 4.9375C10.2708 4.64583 9.91667 4.5 9.5 4.5H6.5C6.08333 4.5 5.72917 4.64583 5.4375 4.9375C5.14583 5.22917 5 5.58333 5 6C5 6.41667 5.14583 6.77083 5.4375 7.0625C5.72917 7.35417 6.08333 7.5 6.5 7.5ZM6.5 6.5C6.64167 6.5 6.76042 6.45208 6.85625 6.35625C6.95208 6.26042 7 6.14167 7 6C7 5.85833 6.95208 5.73958 6.85625 5.64375C6.76042 5.54792 6.64167 5.5 6.5 5.5C6.35833 5.5 6.23958 5.54792 6.14375 5.64375C6.04792 5.73958 6 5.85833 6 6C6 6.14167 6.04792 6.26042 6.14375 6.35625C6.23958 6.45208 6.35833 6.5 6.5 6.5ZM9.5 6.5C9.64167 6.5 9.76042 6.45208 9.85625 6.35625C9.95208 6.26042 10 6.14167 10 6C10 5.85833 9.95208 5.73958 9.85625 5.64375C9.76042 5.54792 9.64167 5.5 9.5 5.5C9.35833 5.5 9.23958 5.54792 9.14375 5.64375C9.04792 5.73958 9 5.85833 9 6C9 6.14167 9.04792 6.26042 9.14375 6.35625C9.23958 6.45208 9.35833 6.5 9.5 6.5Z"
            fill="white" />
    </g>
</svg>