<svg width="24" height="24" viewBox="0 0 24 24" fill="none" xmlns="http://www.w3.org/2000/svg">
<path d="M21.9487 12.9926L21.7513 14.0292C21.5664 15.0005 20.6588 15.6528 19.6305 15.5534L17.5841 15.3557C16.6923 15.2695 15.9325 14.6361 15.7056 13.7897L15.0743 11.4345C14.1398 11.0513 13.1099 10.8761 11.9845 10.909C10.8591 10.9419 9.81232 11.1778 8.84412 11.6166L8.45304 13.8214C8.30481 14.6571 7.61525 15.2804 6.74193 15.3682L4.70741 15.5728C3.69224 15.6748 2.71891 15.0289 2.43031 14.0616L2.12104 13.025C1.8132 11.9931 2.08792 10.9073 2.84222 10.1743C4.62301 8.44406 7.59203 7.57623 11.7493 7.57083C15.9126 7.56546 18.974 8.42801 20.9337 10.1585C21.7582 10.8866 22.1443 11.9648 21.9487 12.9926Z" fill="white"/>
</svg>

