<svg width="20" height="20" viewBox="0 0 20 20"  fill="#616161" xmlns="http://www.w3.org/2000/svg">
<path d="M6.83667 8.33333L6.48667 11.6667H6.4H3.25V13.3333H6.23333L5.8 17.5H7.475L7.91667 13.3333H11.2417L10.8083 17.5H12.4917L12.9333 13.3333H16.6167V11.6667H13.1167L13.2917 10H11.6625L11.4875 11.6667H8.1625L8.5125 8.33333H10.8334V6.66667H8.66667L9.10833 2.5H7.43333L7 6.66667H3.325V8.33333H6.83667Z"/>
<path d="M16.6875 4.16675V3.33341C16.6875 2.40008 15.875 1.66675 15 1.66675C14.125 1.66675 13.3333 2.40008 13.3333 3.33341V4.16675C12.8731 4.16675 12.5 4.53985 12.5 5.00008V7.50008C12.5 7.96031 12.8731 8.33341 13.3333 8.33341H15H16.6667C17.1269 8.33341 17.5 7.96031 17.5 7.50008V4.97925C17.5 4.53051 17.1362 4.16675 16.6875 4.16675ZM15.8333 4.16675H14.1667V3.33341C14.1667 2.85722 14.5556 2.50008 15 2.50008C15.4444 2.50008 15.8333 2.85722 15.8333 3.33341V4.16675Z" />
</svg>
