<svg width="21" height="9" viewBox="0 0 21 9" fill="none" xmlns="http://www.w3.org/2000/svg">
<path d="M20.9487 5.99261L20.7513 7.02918C20.5664 8.0005 19.6588 8.65278 18.6305 8.55341L16.5841 8.35566C15.6923 8.26949 14.9325 7.6361 14.7056 6.78973L14.0743 4.43449C13.1398 4.05128 12.1099 3.87613 10.9845 3.90903C9.85911 3.94193 8.81232 4.1778 7.84412 4.61663L7.45304 6.82136C7.30481 7.65706 6.61525 8.28042 5.74193 8.36823L3.70741 8.57278C2.69224 8.67484 1.71891 8.02889 1.43031 7.06159L1.12104 6.02496C0.813202 4.99314 1.08792 3.90726 1.84222 3.17435C3.62301 1.44406 6.59203 0.576229 10.7493 0.570826C14.9126 0.565465 17.974 1.42801 19.9337 3.15849C20.7582 3.88665 21.1443 4.96479 20.9487 5.99261Z" fill="white"/>
</svg>
