<svg width="24" height="24" viewBox="0 0 24 24" fill="#70707B" xmlns="http://www.w3.org/2000/svg">
<path d="M8.79053 19.3376C10.0779 20.3775 11.7161 21.0002 13.4999 21.0002C14.6315 21.0002 15.7064 20.7491 16.6701 20.299L20.1027 20.9856C20.3486 21.0348 20.6029 20.9579 20.7802 20.7806C20.9575 20.6032 21.0345 20.349 20.9853 20.1031L20.2988 16.6702C20.7488 15.7065 20.9999 14.6318 20.9999 13.5002C20.9999 11.7168 20.3774 10.0788 19.338 8.79163C19.4443 9.3448 19.4999 9.91599 19.4999 10.5002C19.4999 11.0652 19.4479 11.618 19.3483 12.1541C19.4475 12.5868 19.4999 13.0374 19.4999 13.5002C19.4999 14.4837 19.2638 15.41 18.8458 16.2274C18.7689 16.3779 18.745 16.5501 18.7782 16.7159L19.2938 19.2941L16.7159 18.7784C16.55 18.7452 16.3778 18.7691 16.2273 18.8461C15.4098 19.2641 14.4835 19.5002 13.4999 19.5002C13.037 19.5002 12.5864 19.4478 12.1537 19.3486C11.6176 19.4481 11.0648 19.5002 10.4999 19.5002C9.91613 19.5002 9.34454 19.4443 8.79053 19.3376ZM10.5 3C6.35788 3 3.00001 6.35786 3.00001 10.5C3.00001 11.6316 3.2511 12.7064 3.70112 13.6701L3.01458 17.103C2.9654 17.3489 3.04237 17.6031 3.2197 17.7804C3.39702 17.9577 3.65123 18.0347 3.89713 17.9855L7.32974 17.2988C8.29349 17.7489 9.36836 18 10.5 18C14.6421 18 18 14.6421 18 10.5C18 6.35786 14.6421 3 10.5 3Z" />
</svg>
