<svg width="14" height="15" viewBox="0 0 14 15" fill="black" xmlns="http://www.w3.org/2000/svg">
<path d="M7 6.7929L10.5355 3.25736C10.7308 3.0621 11.0474 3.0621 11.2426 3.25736C11.4379 3.45262 11.4379 3.76921 11.2426 3.96447L7.70711 7.5L11.2426 11.0355C11.4379 11.2308 11.4379 11.5474 11.2426 11.7426C11.0474 11.9379 10.7308 11.9379 10.5355 11.7426L7 8.20711L3.46447 11.7426C3.26921 11.9379 2.95262 11.9379 2.75736 11.7426C2.5621 11.5474 2.5621 11.2308 2.75736 11.0355L6.2929 7.5L2.75736 3.96447C2.5621 3.76921 2.5621 3.45262 2.75736 3.25736C2.95262 3.0621 3.26921 3.0621 3.46447 3.25736L7 6.7929Z"  fill-opacity="0.8"/>
</svg>
