<svg width="24" height="24" viewBox="0 0 24 24" fill="none" xmlns="http://www.w3.org/2000/svg">
<path d="M3.74984 6.82964C3.47658 6.82964 3.22041 6.90284 2.99988 7.0307C2.553 7.28978 2.25244 7.77331 2.25244 8.32704C2.25244 8.88077 2.553 9.3643 2.99988 9.62339C3.22041 9.75124 3.47658 9.82444 3.74984 9.82444C4.57683 9.82444 5.24724 9.15403 5.24724 8.32704C5.24724 7.50005 4.57683 6.82964 3.74984 6.82964ZM3.74984 5.32964C3.58384 5.32964 3.42098 5.34313 3.26232 5.36909C3.81224 3.98139 5.16645 3 6.74988 3H17.2499C19.3209 3 20.9999 4.67893 20.9999 6.75V17.25C20.9999 19.3211 19.3209 21 17.2499 21H6.74988C4.67881 21 2.99988 19.3211 2.99988 17.25V11.2299C3.23957 11.2916 3.49087 11.3244 3.74984 11.3244C5.40526 11.3244 6.74724 9.98246 6.74724 8.32704C6.74724 6.67162 5.40526 5.32964 3.74984 5.32964ZM8.24988 9.75C8.24988 10.1642 8.58566 10.5 8.99988 10.5H14.9999C15.4141 10.5 15.7499 10.1642 15.7499 9.75C15.7499 9.33579 15.4141 9 14.9999 9H8.99988C8.58566 9 8.24988 9.33579 8.24988 9.75ZM8.24988 14.25C8.24988 14.6642 8.58566 15 8.99988 15H12.9207C13.335 15 13.6707 14.6642 13.6707 14.25C13.6707 13.8358 13.335 13.5 12.9207 13.5H8.99988C8.58566 13.5 8.24988 13.8358 8.24988 14.25Z" fill="#4B5563"/>
</svg>
