<svg width="24" height="24" viewBox="0 0 24 24" fill="none" xmlns="http://www.w3.org/2000/svg">
<path d="M12 3.25C13.4346 3.25 14.6126 4.34848 14.7388 5.75019L19 5.75C19.4142 5.75 19.75 6.08579 19.75 6.5C19.75 6.8797 19.4678 7.19349 19.1018 7.24315L19 7.25H18.417L17.1499 18.2292C17.0335 19.2384 16.179 20 15.1631 20H8.83688C7.821 20 6.9665 19.2384 6.85006 18.2292L5.582 7.25H5C4.6203 7.25 4.30651 6.96785 4.25685 6.60177L4.25 6.5C4.25 6.1203 4.53215 5.80651 4.89823 5.75685L5 5.75L9.26119 5.75019C9.38741 4.34848 10.5654 3.25 12 3.25ZM10.5 9.5C10.2545 9.5 10.0504 9.65477 10.0081 9.85886L10 9.9375V16.0625L10.0081 16.1411C10.0504 16.3452 10.2545 16.5 10.5 16.5C10.7455 16.5 10.9496 16.3452 10.9919 16.1411L11 16.0625V9.9375L10.9919 9.85886C10.9496 9.65477 10.7455 9.5 10.5 9.5ZM13.5 9.5C13.2545 9.5 13.0504 9.65477 13.0081 9.85886L13 9.9375V16.0625L13.0081 16.1411C13.0504 16.3452 13.2545 16.5 13.5 16.5C13.7455 16.5 13.9496 16.3452 13.9919 16.1411L14 16.0625V9.9375L13.9919 9.85886C13.9496 9.65477 13.7455 9.5 13.5 9.5ZM12 4.75C11.3952 4.75 10.8908 5.17947 10.775 5.75005H13.225C13.1092 5.17947 12.6048 4.75 12 4.75Z" fill="#D92D20"/>
</svg>
