<svg width="16" height="16" viewBox="0 0 16 16" fill="none" xmlns="http://www.w3.org/2000/svg">
<path d="M15.5359 8.03733C15.5359 8.26089 15.4826 8.47067 15.3932 8.66133C14.7972 10.584 12.007 10.4436 8.03811 10.5373C7.37455 10.5529 7.75411 11.3364 7.987 13.0564C8.13855 14.1751 7.41722 15.8929 6.20478 15.8929C4.20566 15.8929 6.12878 14.316 4.36122 10.4164C3.41678 8.33289 1.30566 9.5 1.30566 7.40711V2.64356C1.30566 1.82889 1.38566 1.04578 2.53144 0.916889C3.64211 0.791556 3.39233 0 4.99455 0H13.0141C13.831 0 14.4954 0.664889 14.4954 1.48178C14.4954 1.82044 14.3768 2.12889 14.1852 2.37867C14.6386 2.63244 14.9497 3.11156 14.9497 3.66711C14.9497 4.00489 14.8314 4.31333 14.6403 4.56267C15.095 4.816 15.407 5.29556 15.407 5.852C15.407 6.256 15.2434 6.62222 14.9799 6.89022C15.3163 7.16178 15.5359 7.57244 15.5359 8.03733Z" fill="#FFDB5E"/>
<path d="M10.231 6.55604H14.055C14.575 6.55604 15.063 6.83427 15.3288 7.28182C15.4381 7.46627 15.3772 7.70493 15.1923 7.81471C15.0079 7.92449 14.7692 7.86271 14.6594 7.67827C14.5337 7.46538 14.3012 7.33382 14.0546 7.33382H10.139C9.751 7.33382 9.43545 7.64938 9.43545 8.03738C9.43545 8.42538 9.751 8.74093 10.139 8.74093H12.7554C12.9701 8.74093 13.1443 8.91515 13.1443 9.12982C13.1443 9.34449 12.9701 9.51871 12.7554 9.51871H10.1386C9.32167 9.51871 8.65723 8.85427 8.65723 8.03738C8.65723 7.58182 8.86834 7.17871 9.19278 6.90671C8.91945 6.63782 8.74923 6.26449 8.74923 5.85204C8.74923 5.39515 8.96167 4.99071 9.28789 4.71915C9.01634 4.45071 8.84789 4.07871 8.84789 3.66715C8.84789 3.16938 9.09634 2.73027 9.47412 2.46138C9.24123 2.1996 9.09545 1.85871 9.09545 1.48182C9.09545 0.664933 9.75989 0.000488281 10.5768 0.000488281H13.0141C13.5341 0.000488281 14.0226 0.278266 14.2883 0.725822C14.3981 0.910266 14.3372 1.14893 14.1528 1.25871C13.9679 1.3676 13.7292 1.3076 13.6199 1.12315C13.4932 0.910266 13.2608 0.778266 13.0141 0.778266H10.5768C10.1888 0.778266 9.87323 1.09382 9.87323 1.48182C9.87323 1.86982 10.1888 2.18538 10.5768 2.18538H13.4683C13.9883 2.18538 14.4772 2.4636 14.7426 2.91115C14.8523 3.09604 14.7914 3.33471 14.607 3.44404C14.4208 3.5556 14.183 3.49293 14.0741 3.30849C13.9457 3.09204 13.719 2.96315 13.4683 2.96315H10.3292C9.94123 2.96315 9.62567 3.27915 9.62567 3.66715C9.62567 4.05515 9.94123 4.37071 10.3292 4.37071H13.9252C14.4452 4.37071 14.9337 4.64849 15.1994 5.09604C15.3092 5.28049 15.2483 5.51915 15.0639 5.62893C14.8786 5.73827 14.6403 5.67782 14.531 5.49338C14.4026 5.27738 14.1759 5.14849 13.9252 5.14849H10.231C9.843 5.14849 9.52745 5.46404 9.52745 5.85204C9.52745 6.24004 9.84256 6.55604 10.231 6.55604Z" fill="#EE9547"/>
</svg>
