<svg width="16" height="16" viewBox="0 0 16 16" fill="none" xmlns="http://www.w3.org/2000/svg">
<g clip-path="url(#clip0_7924_2562)">
<path d="M15.5359 7.96249C15.5359 7.73893 15.4826 7.52916 15.3932 7.33849C14.7972 5.41582 12.007 5.55627 8.03811 5.46249C7.37455 5.44693 7.75411 4.66338 7.987 2.94338C8.13855 1.82471 7.41722 0.106934 6.20478 0.106934C4.20566 0.106934 6.12878 1.68382 4.36122 5.58338C3.41678 7.66693 1.30566 6.49982 1.30566 8.59271V13.3567C1.30566 14.1714 1.38566 14.9545 2.53144 15.0834C3.64211 15.2083 3.39233 15.9998 4.99455 15.9998H13.0141C13.831 15.9998 14.4954 15.3349 14.4954 14.518C14.4954 14.1794 14.3768 13.8709 14.1852 13.6212C14.6386 13.3674 14.9497 12.8883 14.9497 12.3327C14.9497 11.9949 14.8314 11.6865 14.6403 11.4372C15.095 11.1838 15.407 10.7043 15.407 10.1478C15.407 9.74382 15.2434 9.3776 14.9799 9.1096C15.3163 8.83805 15.5359 8.42738 15.5359 7.96249Z" fill="#FFDB5E"/>
<path d="M10.231 9.44411H14.055C14.575 9.44411 15.063 9.16589 15.3288 8.71833C15.4381 8.53389 15.3772 8.29522 15.1923 8.18545C15.0079 8.07567 14.7692 8.13745 14.6594 8.32189C14.5337 8.53478 14.3012 8.66633 14.0546 8.66633H10.139C9.751 8.66633 9.43545 8.35078 9.43545 7.96278C9.43545 7.57478 9.751 7.25922 10.139 7.25922H12.7554C12.9701 7.25922 13.1443 7.085 13.1443 6.87033C13.1443 6.65567 12.9701 6.48145 12.7554 6.48145H10.1386C9.32167 6.48145 8.65723 7.14589 8.65723 7.96278C8.65723 8.41833 8.86834 8.82144 9.19278 9.09345C8.91945 9.36233 8.74923 9.73567 8.74923 10.1481C8.74923 10.605 8.96167 11.0094 9.28789 11.281C9.01634 11.5494 8.84789 11.9214 8.84789 12.333C8.84789 12.8308 9.09634 13.2699 9.47412 13.5388C9.24123 13.8006 9.09545 14.1414 9.09545 14.5183C9.09545 15.3352 9.75989 15.9997 10.5768 15.9997H13.0141C13.5341 15.9997 14.0226 15.7219 14.2883 15.2743C14.3981 15.0899 14.3372 14.8512 14.1528 14.7414C13.9679 14.6326 13.7292 14.6926 13.6199 14.877C13.4932 15.0899 13.2608 15.2219 13.0141 15.2219H10.5768C10.1888 15.2219 9.87323 14.9063 9.87323 14.5183C9.87323 14.1303 10.1888 13.8148 10.5768 13.8148H13.4683C13.9883 13.8148 14.4772 13.5366 14.7426 13.089C14.8523 12.9041 14.7914 12.6654 14.607 12.5561C14.4208 12.4446 14.183 12.5072 14.0741 12.6917C13.9457 12.9081 13.719 13.037 13.4683 13.037H10.3292C9.94123 13.037 9.62567 12.721 9.62567 12.333C9.62567 11.945 9.94123 11.6294 10.3292 11.6294H13.9252C14.4452 11.6294 14.9337 11.3517 15.1994 10.9041C15.3092 10.7197 15.2483 10.481 15.0639 10.3712C14.8786 10.2619 14.6403 10.3223 14.531 10.5068C14.4026 10.7228 14.1759 10.8517 13.9252 10.8517H10.231C9.843 10.8517 9.52745 10.5361 9.52745 10.1481C9.52745 9.76011 9.84256 9.44411 10.231 9.44411Z" fill="#EE9547"/>
</g>
<defs>
<clipPath id="clip0_7924_2562">
<rect width="16" height="16" fill="white"/>
</clipPath>
</defs>
</svg>
