<svg width="16" height="16" viewBox="0 0 16 16" fill="none" xmlns="http://www.w3.org/2000/svg">
<path d="M8 16C12.4183 16 16 12.4183 16 8C16 3.58172 12.4183 0 8 0C3.58172 0 0 3.58172 0 8C0 12.4183 3.58172 16 8 16Z" fill="#FFCC4D"/>
<path d="M7.99997 9.33326C6.38975 9.33326 5.32131 9.1457 3.99997 8.88881C3.6982 8.83059 3.11108 8.88881 3.11108 9.7777C3.11108 11.5555 5.15331 13.7777 7.99997 13.7777C10.8462 13.7777 12.8889 11.5555 12.8889 9.7777C12.8889 8.88881 12.3018 8.83015 12 8.88881C10.6786 9.1457 9.6102 9.33326 7.99997 9.33326Z" fill="#664500"/>
<path d="M4 9.77783C4 9.77783 5.33333 10.2223 8 10.2223C10.6667 10.2223 12 9.77783 12 9.77783C12 9.77783 11.1111 11.5556 8 11.5556C4.88889 11.5556 4 9.77783 4 9.77783Z" fill="white"/>
<path d="M5.33328 7.55545C5.94693 7.55545 6.44439 6.859 6.44439 5.99989C6.44439 5.14078 5.94693 4.44434 5.33328 4.44434C4.71963 4.44434 4.22217 5.14078 4.22217 5.99989C4.22217 6.859 4.71963 7.55545 5.33328 7.55545Z" fill="#664500"/>
<path d="M10.6668 7.55545C11.2804 7.55545 11.7779 6.859 11.7779 5.99989C11.7779 5.14078 11.2804 4.44434 10.6668 4.44434C10.0531 4.44434 9.55566 5.14078 9.55566 5.99989C9.55566 6.859 10.0531 7.55545 10.6668 7.55545Z" fill="#664500"/>
</svg>
