<svg width="160" height="160" viewBox="0 0 160 160" fill="#D0D5DD" xmlns="http://www.w3.org/2000/svg">
<path d="M79.9997 13.3642C116.819 13.3642 146.666 43.2118 146.666 80.0308C146.666 116.85 116.819 146.698 79.9997 146.698C43.1807 146.698 13.333 116.85 13.333 80.0308C13.333 43.2118 43.1807 13.3642 79.9997 13.3642ZM79.9997 23.3642C48.7035 23.3642 23.333 48.7347 23.333 80.0308C23.333 111.327 48.7035 136.698 79.9997 136.698C111.296 136.698 136.666 111.327 136.666 80.0308C136.666 48.7347 111.296 23.3642 79.9997 23.3642ZM79.9997 86.6667C88.284 86.6667 94.9997 93.3824 94.9997 101.667C94.9997 109.951 88.284 116.667 79.9997 116.667C71.7154 116.667 64.9997 109.951 64.9997 101.667C64.9997 93.3824 71.7154 86.6667 79.9997 86.6667ZM60.0027 58.3411C64.6024 58.3411 68.3313 62.0699 68.3313 66.6697C68.3313 71.2694 64.6024 74.9983 60.0027 74.9983C55.4029 74.9983 51.6741 71.2694 51.6741 66.6697C51.6741 62.0699 55.4029 58.3411 60.0027 58.3411ZM100.003 58.3411C104.602 58.3411 108.331 62.0699 108.331 66.6697C108.331 71.2694 104.602 74.9983 100.003 74.9983C95.4029 74.9983 91.6741 71.2694 91.6741 66.6697C91.6741 62.0699 95.4029 58.3411 100.003 58.3411Z" />
</svg>
