<svg width="16" height="16" viewBox="0 0 16 16" fill="none" xmlns="http://www.w3.org/2000/svg">
<g clip-path="url(#clip0_7924_2577)">
<path d="M5.16703 3.32813C5.11725 3.37791 5.07947 3.43791 5.04792 3.50369L5.04436 3.50013L0.0594748 14.7295L0.0643636 14.7344C-0.0280808 14.9135 0.126586 15.2779 0.443475 15.5952C0.760364 15.9121 1.12481 16.0668 1.30392 15.9744L1.30836 15.9788L12.5377 10.9935L12.5341 10.9895C12.5995 10.9584 12.6595 10.9206 12.7097 10.8699C13.4039 10.1757 12.2781 7.92458 10.1959 5.84191C8.11281 3.75924 5.8617 2.63391 5.16703 3.32813Z" fill="#DD2E44"/>
<path d="M5.7777 5.3335L0.184808 14.4473L0.0594748 14.7295L0.0643636 14.7344C-0.0280808 14.9135 0.126586 15.2779 0.443475 15.5953C0.546586 15.6984 0.653697 15.7766 0.758586 15.8428L7.55548 7.55572L5.7777 5.3335Z" fill="#EA596E"/>
<path d="M10.2275 5.80713C12.3031 7.88358 13.4555 10.0969 12.8004 10.7511C12.1457 11.4062 9.93241 10.2542 7.85552 8.17869C5.77952 6.10224 4.62752 3.88802 5.28219 3.23335C5.9373 2.57869 8.15063 3.73069 10.2275 5.80713Z" fill="#A0041E"/>
<path d="M8.26223 6.04852C8.17379 6.12008 8.05823 6.15741 7.93601 6.14408C7.55023 6.1023 7.22579 5.96808 6.99868 5.75608C6.75823 5.53163 6.63956 5.2303 6.67201 4.92852C6.7289 4.39874 7.26045 3.91252 8.16668 4.0103C8.51912 4.04808 8.67645 3.93474 8.68179 3.88052C8.68801 3.82674 8.55868 3.6823 8.20623 3.64408C7.82045 3.6023 7.49601 3.46808 7.26845 3.25608C7.02801 3.03163 6.9089 2.7303 6.94179 2.42852C6.99957 1.89874 7.53068 1.41252 8.43601 1.51074C8.6929 1.5383 8.82845 1.48541 8.88579 1.45119C8.93157 1.42319 8.94979 1.39652 8.95157 1.38097C8.9569 1.32719 8.82934 1.18274 8.47601 1.14452C8.23201 1.11786 8.05512 0.899188 8.08223 0.654744C8.10845 0.410744 8.32668 0.2343 8.57156 0.260966C9.4769 0.3583 9.8929 0.9463 9.83556 1.47652C9.77779 2.00719 9.24668 2.49252 8.34045 2.39519C8.08357 2.36719 7.94934 2.42052 7.89157 2.45474C7.84579 2.4823 7.82712 2.50941 7.82534 2.52452C7.81957 2.57874 7.94801 2.72274 8.30134 2.76097C9.20668 2.85874 9.62268 3.4463 9.56534 3.97652C9.50801 4.5063 8.9769 4.99252 8.07112 4.8943C7.81423 4.86674 7.67912 4.92008 7.62134 4.95386C7.57512 4.9823 7.55734 5.00897 7.55556 5.02408C7.54979 5.07786 7.67823 5.2223 8.03112 5.26052C8.27468 5.28719 8.45201 5.5063 8.4249 5.7503C8.41245 5.87208 8.35068 5.97741 8.26223 6.04852Z" fill="#AA8DD8"/>
<path d="M13.6272 10.1588C14.504 9.91122 15.1089 10.3023 15.2529 10.8157C15.3969 11.3285 15.0849 11.9779 14.2085 12.2246C13.8663 12.3205 13.7636 12.4841 13.7774 12.5361C13.7925 12.5886 13.9663 12.6748 14.3076 12.5783C15.184 12.3317 15.7889 12.7228 15.9329 13.2357C16.0778 13.749 15.7649 14.3974 14.888 14.6446C14.5463 14.7406 14.4432 14.9046 14.4583 14.9566C14.4729 15.0086 14.6463 15.0948 14.988 14.9988C15.2236 14.9326 15.4698 15.0699 15.536 15.3059C15.6018 15.5423 15.4645 15.7877 15.228 15.8543C14.352 16.101 13.7467 15.7108 13.6018 15.197C13.4578 14.6841 13.7703 14.0357 14.6476 13.7885C14.9898 13.6921 15.0925 13.529 15.0774 13.4766C15.0632 13.4246 14.8898 13.3379 14.5485 13.4339C13.6712 13.681 13.0667 13.2908 12.9223 12.7766C12.7778 12.2637 13.0903 11.6152 13.9672 11.3677C14.3085 11.2721 14.4112 11.1077 14.3969 11.0561C14.3818 11.0037 14.2089 10.9174 13.8672 11.0134C13.6307 11.0801 13.3858 10.9423 13.3192 10.7063C13.2529 10.4708 13.3907 10.2254 13.6272 10.1588Z" fill="#77B255"/>
<path d="M10.2226 8.96008C10.092 8.96008 9.96309 8.90274 9.87509 8.79341C9.72176 8.60141 9.75331 8.32185 9.94443 8.16852C10.0413 8.09074 12.3524 6.27563 15.6186 6.74274C15.8618 6.77741 16.0306 7.0023 15.996 7.24541C15.9613 7.48808 15.7382 7.65874 15.4929 7.6223C12.6071 7.21252 10.5209 8.8463 10.5004 8.86274C10.4178 8.92852 10.32 8.96008 10.2226 8.96008Z" fill="#AA8DD8"/>
<path d="M2.55737 7.11115C2.51515 7.11115 2.47204 7.10493 2.42937 7.09249C2.19426 7.02182 2.06093 6.77426 2.1316 6.53915C2.63515 4.86226 3.0916 2.18626 2.53071 1.48848C2.46804 1.40937 2.37337 1.3316 2.15649 1.34804C1.7396 1.38004 1.77915 2.2596 1.7796 2.26848C1.79826 2.51337 1.61426 2.72671 1.36982 2.74493C1.12137 2.76004 0.911597 2.5796 0.893375 2.33471C0.847597 1.72182 1.03826 0.541373 2.08982 0.461818C2.55915 0.426262 2.94893 0.589373 3.22404 0.931596C4.27782 2.24315 3.20804 6.04537 2.98315 6.79471C2.92537 6.98715 2.74849 7.11115 2.55737 7.11115Z" fill="#77B255"/>
<path d="M11.3334 4.889C11.7016 4.889 12.0001 4.59052 12.0001 4.22233C12.0001 3.85414 11.7016 3.55566 11.3334 3.55566C10.9652 3.55566 10.6667 3.85414 10.6667 4.22233C10.6667 4.59052 10.9652 4.889 11.3334 4.889Z" fill="#5C913B"/>
<path d="M0.888889 8.88911C1.37981 8.88911 1.77778 8.49114 1.77778 8.00022C1.77778 7.5093 1.37981 7.11133 0.888889 7.11133C0.397969 7.11133 0 7.5093 0 8.00022C0 8.49114 0.397969 8.88911 0.888889 8.88911Z" fill="#9266CC"/>
<path d="M14.4445 9.33333C14.8127 9.33333 15.1112 9.03486 15.1112 8.66667C15.1112 8.29848 14.8127 8 14.4445 8C14.0763 8 13.7778 8.29848 13.7778 8.66667C13.7778 9.03486 14.0763 9.33333 14.4445 9.33333Z" fill="#5C913B"/>
<path d="M10.4445 14.6668C10.8127 14.6668 11.1112 14.3684 11.1112 14.0002C11.1112 13.632 10.8127 13.3335 10.4445 13.3335C10.0763 13.3335 9.77783 13.632 9.77783 14.0002C9.77783 14.3684 10.0763 14.6668 10.4445 14.6668Z" fill="#5C913B"/>
<path d="M12.4446 2.66645C12.9355 2.66645 13.3334 2.26848 13.3334 1.77756C13.3334 1.28664 12.9355 0.888672 12.4446 0.888672C11.9536 0.888672 11.5557 1.28664 11.5557 1.77756C11.5557 2.26848 11.9536 2.66645 12.4446 2.66645Z" fill="#FFCC4D"/>
<path d="M14.4445 4.44466C14.8127 4.44466 15.1112 4.14618 15.1112 3.77799C15.1112 3.4098 14.8127 3.11133 14.4445 3.11133C14.0763 3.11133 13.7778 3.4098 13.7778 3.77799C13.7778 4.14618 14.0763 4.44466 14.4445 4.44466Z" fill="#FFCC4D"/>
<path d="M13.111 6.22201C13.4792 6.22201 13.7777 5.92353 13.7777 5.55534C13.7777 5.18715 13.4792 4.88867 13.111 4.88867C12.7428 4.88867 12.4443 5.18715 12.4443 5.55534C12.4443 5.92353 12.7428 6.22201 13.111 6.22201Z" fill="#FFCC4D"/>
<path d="M3.33341 11.1112C3.7016 11.1112 4.00008 10.8127 4.00008 10.4445C4.00008 10.0763 3.7016 9.77783 3.33341 9.77783C2.96522 9.77783 2.66675 10.0763 2.66675 10.4445C2.66675 10.8127 2.96522 11.1112 3.33341 11.1112Z" fill="#FFCC4D"/>
</g>
<defs>
<clipPath id="clip0_7924_2577">
<rect width="16" height="16" fill="white"/>
</clipPath>
</defs>
</svg>
