<svg width="16" height="16" viewBox="0 0 16 16" fill="none" xmlns="http://www.w3.org/2000/svg">
<path d="M0.444336 7.55545L3.99989 4.44434L11.111 4.88878L11.5554 11.9999L8.44434 15.5554C8.44434 15.5554 8.44478 12.8892 5.77767 10.2221C3.11056 7.555 0.444336 7.55545 0.444336 7.55545Z" fill="#A0041E"/>
<path d="M0.432382 15.5555C0.432382 15.5555 0.416382 12.0093 1.75905 10.6666C3.10171 9.32395 6.6666 9.41639 6.6666 9.41639C6.6666 9.41639 6.66616 12.8888 5.33283 14.2222C3.99949 15.5555 0.432382 15.5555 0.432382 15.5555Z" fill="#FFAC33"/>
<path d="M3.99946 13.7777C4.9813 13.7777 5.77724 12.9818 5.77724 11.9999C5.77724 11.0181 4.9813 10.2222 3.99946 10.2222C3.01762 10.2222 2.22168 11.0181 2.22168 11.9999C2.22168 12.9818 3.01762 13.7777 3.99946 13.7777Z" fill="#FFCC4D"/>
<path d="M15.9995 0C15.9995 0 11.5551 0 6.22175 4.44444C3.55509 6.66667 3.55509 10.6667 4.44398 11.5556C5.33287 12.4444 9.33287 12.4444 11.5551 9.77778C15.9995 4.44444 15.9995 0 15.9995 0Z" fill="#55ACEE"/>
<path d="M11.9996 2.22217C11.2782 2.22217 10.6605 2.65372 10.3813 3.27106C10.6045 3.17017 10.8502 3.11106 11.1107 3.11106C12.0925 3.11106 12.8885 3.90706 12.8885 4.88883C12.8885 5.14928 12.8293 5.39506 12.7289 5.61772C13.3462 5.33906 13.7773 4.72128 13.7773 3.99995C13.7773 3.01817 12.9813 2.22217 11.9996 2.22217Z" fill="black"/>
<path d="M3.55566 12.4444C3.55566 12.4444 3.55566 10.6666 4.00011 10.2222C4.44455 9.77772 9.77833 5.33372 10.2223 5.77772C10.6663 6.22172 6.22189 11.5555 5.77744 11.9999C5.333 12.4444 3.55566 12.4444 3.55566 12.4444Z" fill="#A0041E"/>
</svg>
