<svg width="16" height="16" viewBox="0 0 16 16" fill="none" xmlns="http://www.w3.org/2000/svg">
<path d="M16 8C16 12.4182 12.4182 16 8 16C3.58222 16 0 12.4182 0 8C0 3.58222 3.58222 0 8 0C12.4182 0 16 3.58222 16 8Z" fill="#FFCC4D"/>
<path d="M5.11111 8.88894C5.72476 8.88894 6.22222 8.1925 6.22222 7.33339C6.22222 6.47428 5.72476 5.77783 5.11111 5.77783C4.49746 5.77783 4 6.47428 4 7.33339C4 8.1925 4.49746 8.88894 5.11111 8.88894Z" fill="#664500"/>
<path d="M10.8889 8.88894C11.5026 8.88894 12.0001 8.1925 12.0001 7.33339C12.0001 6.47428 11.5026 5.77783 10.8889 5.77783C10.2753 5.77783 9.77783 6.47428 9.77783 7.33339C9.77783 8.1925 10.2753 8.88894 10.8889 8.88894Z" fill="#664500"/>
<path d="M5.33325 12.4443C6.22214 10.2221 11.111 10.2221 11.111 11.111C11.111 11.5554 7.55547 10.6666 5.33325 12.4443Z" fill="#664500"/>
</svg>
