<svg width="16" height="16" viewBox="0 0 16 16" fill="none" xmlns="http://www.w3.org/2000/svg">
<path d="M3.92358 13.9025C5.87573 13.9025 7.45825 11.2598 7.45825 7.99984C7.45825 4.73988 5.87573 2.09717 3.92358 2.09717C1.97144 2.09717 0.388916 4.73988 0.388916 7.99984C0.388916 11.2598 1.97144 13.9025 3.92358 13.9025Z" fill="#F5F8FA"/>
<path d="M3.92366 14.2362C1.75478 14.2362 0.0556641 11.497 0.0556641 8.00016C0.0556641 4.50327 1.75478 1.76416 3.92366 1.76416C6.09255 1.76416 7.79166 4.50327 7.79166 8.00016C7.79166 11.497 6.09255 14.2362 3.92366 14.2362ZM3.92366 2.43083C2.15833 2.43083 0.722331 4.92905 0.722331 8.00016C0.722331 11.0713 2.15833 13.5695 3.92366 13.5695C5.689 13.5695 7.125 11.0713 7.125 8.00016C7.125 4.92905 5.689 2.43083 3.92366 2.43083Z" fill="#E1E8ED"/>
<path d="M2.93076 10.2043C4.14824 10.2043 5.13521 9.21734 5.13521 7.99985C5.13521 6.78237 4.14824 5.79541 2.93076 5.79541C1.71328 5.79541 0.726318 6.78237 0.726318 7.99985C0.726318 9.21734 1.71328 10.2043 2.93076 10.2043Z" fill="#8899A6"/>
<path d="M2.93064 9.58442C3.8057 9.58442 4.51508 8.87504 4.51508 7.99997C4.51508 7.12491 3.8057 6.41553 2.93064 6.41553C2.05557 6.41553 1.34619 7.12491 1.34619 7.99997C1.34619 8.87504 2.05557 9.58442 2.93064 9.58442Z" fill="#292F33"/>
<path d="M3.5161 7.49754C3.86613 7.49754 4.14988 7.21378 4.14988 6.86376C4.14988 6.51373 3.86613 6.22998 3.5161 6.22998C3.16608 6.22998 2.88232 6.51373 2.88232 6.86376C2.88232 7.21378 3.16608 7.49754 3.5161 7.49754Z" fill="#F5F8FA"/>
<path d="M12.104 13.9025C14.0561 13.9025 15.6387 11.2598 15.6387 7.99984C15.6387 4.73988 14.0561 2.09717 12.104 2.09717C10.1519 2.09717 8.56934 4.73988 8.56934 7.99984C8.56934 11.2598 10.1519 13.9025 12.104 13.9025Z" fill="#F5F8FA"/>
<path d="M12.1041 14.2362C9.93519 14.2362 8.23608 11.497 8.23608 8.00016C8.23608 4.50327 9.93519 1.76416 12.1041 1.76416C14.273 1.76416 15.9725 4.50327 15.9725 8.00016C15.9725 11.497 14.273 14.2362 12.1041 14.2362ZM12.1041 2.43083C10.3388 2.43083 8.90275 4.92949 8.90275 8.00016C8.90275 11.0713 10.3388 13.5695 12.1041 13.5695C13.8694 13.5695 15.3059 11.0713 15.3059 8.00016C15.3059 4.92905 13.8694 2.43083 12.1041 2.43083Z" fill="#E1E8ED"/>
<path d="M11.1112 10.2043C12.3287 10.2043 13.3156 9.21734 13.3156 7.99985C13.3156 6.78237 12.3287 5.79541 11.1112 5.79541C9.8937 5.79541 8.90674 6.78237 8.90674 7.99985C8.90674 9.21734 9.8937 10.2043 11.1112 10.2043Z" fill="#8899A6"/>
<path d="M11.1111 9.58442C11.9861 9.58442 12.6955 8.87504 12.6955 7.99997C12.6955 7.12491 11.9861 6.41553 11.1111 6.41553C10.236 6.41553 9.52661 7.12491 9.52661 7.99997C9.52661 8.87504 10.236 9.58442 11.1111 9.58442Z" fill="#292F33"/>
<path d="M11.6965 7.49754C12.0465 7.49754 12.3303 7.21378 12.3303 6.86376C12.3303 6.51373 12.0465 6.22998 11.6965 6.22998C11.3465 6.22998 11.0627 6.51373 11.0627 6.86376C11.0627 7.21378 11.3465 7.49754 11.6965 7.49754Z" fill="#F5F8FA"/>
</svg>
