<svg width="72" height="96" viewBox="0 0 72 96" fill="none" xmlns="http://www.w3.org/2000/svg">
<g clip-path="url(#clip0_4011_27602)">
<path d="M72 29.3V89.6C72 91.84 72 92.96 71.56 93.82C71.18 94.56 70.56 95.18 69.82 95.56C68.96 96 67.84 96 65.6 96H6.4C4.16 96 3.04 96 2.18 95.56C1.44 95.18 0.819999 94.56 0.44 93.82C-5.66244e-07 92.96 -3.89266e-07 91.84 7.33793e-10 89.6L1.45507e-05 6.4C1.49407e-05 4.16 1.51396e-05 3.04 0.440016 2.18C0.820016 1.44 1.44002 0.819999 2.18002 0.439999C3.04002 -5.96046e-07 4.16002 -3.89266e-07 6.40002 7.33824e-10L42.7 6.35073e-06C44.66 6.69073e-06 45.64 6.86944e-06 46.56 0.220007C47.06 0.340007 47.54 0.500007 48 0.720007V17.6C48 19.84 48 20.96 48.44 21.82C48.82 22.56 49.44 23.18 50.18 23.56C51.04 24 52.16 24 54.4 24H71.28C71.5 24.46 71.66 24.94 71.78 25.44C72 26.36 72 27.34 72 29.3Z" fill="#A5F3FC"/>
<path d="M68.26 20.26C69.64 21.64 70.32 22.32 70.82 23.14C71 23.42 71.14 23.7 71.28 24H54.4C52.16 24 51.04 24 50.18 23.56C49.44 23.18 48.82 22.56 48.44 21.82C48 20.96 48 19.84 48 17.6V0.719971C48.3 0.859971 48.58 0.999971 48.86 1.17997C49.68 1.67997 50.36 2.35997 51.74 3.73997L68.26 20.26Z" fill="#06B6D4"/>
<path fill-rule="evenodd" clip-rule="evenodd" d="M32 48C32 52.4183 28.4183 56 24 56C19.5817 56 16 52.4183 16 48C16 43.5817 19.5817 40 24 40C28.4183 40 32 43.5817 32 48ZM33.648 71.526L44 55.998L56 79.998H16L28 63.998L33.648 71.526Z" fill="#0891B2"/>
</g>
<defs>
<clipPath id="clip0_4011_27602">
<rect width="72" height="96" fill="white"/>
</clipPath>
</defs>
</svg>
