<svg width="72" height="96" viewBox="0 0 72 96" fill="none" xmlns="http://www.w3.org/2000/svg">
<g clip-path="url(#clip0_4011_27603)">
<path d="M72 29.3V89.6C72 91.84 72 92.96 71.56 93.82C71.18 94.56 70.56 95.18 69.82 95.56C68.96 96 67.84 96 65.6 96H6.4C4.16 96 3.04 96 2.18 95.56C1.44 95.18 0.82 94.56 0.44 93.82C0 92.96 0 91.84 0 89.6V6.4C0 4.16 0 3.04 0.44 2.18C0.82 1.44 1.44 0.82 2.18 0.44C3.04 0 4.16 0 6.4 0H42.7C44.66 0 45.64 0 46.56 0.22C47.06 0.34 47.54 0.5 48 0.72V17.6C48 19.84 48 20.96 48.44 21.82C48.82 22.56 49.44 23.18 50.18 23.56C51.04 24 52.16 24 54.4 24H71.28C71.5 24.46 71.66 24.94 71.78 25.44C72 26.36 72 27.34 72 29.3Z" fill="#A5F3FC"/>
<path d="M68.26 20.26C69.64 21.64 70.32 22.32 70.82 23.14C71 23.42 71.14 23.7 71.28 24H54.4C52.16 24 51.04 24 50.18 23.56C49.44 23.18 48.82 22.56 48.44 21.82C48 20.96 48 19.84 48 17.6V0.719971C48.3 0.859971 48.58 0.999971 48.86 1.17997C49.68 1.67997 50.36 2.35997 51.74 3.73997L68.26 20.26Z" fill="#06B6D4"/>
<path d="M56.1014 65.0909C52.962 61.8909 44.4014 63.2 42.3389 63.4364C40.0756 61.2182 38.1408 58.7091 36.5528 55.9818C37.6845 52.8182 38.3233 49.5091 38.4876 46.1636C38.4876 43.2 37.2829 40 33.9061 40C32.7197 40.0364 31.6246 40.6545 31.004 41.6545C29.562 44.1455 30.1643 49.1091 32.4459 54.2C30.8762 58.8545 28.8867 63.3636 26.5321 67.6909C23.0275 69.1091 15.6717 72.4182 15.0694 75.9818C14.8321 77.0727 15.2154 78.1818 16.0368 78.9455C16.8946 79.6364 17.9533 80 19.0667 80C23.5386 80 27.8828 73.9636 30.8945 68.8727C34.326 67.7273 37.8305 66.8182 41.3897 66.1455C46.0989 70.1636 50.2058 70.7636 52.3779 70.7636C55.28 70.7636 56.357 69.5818 56.722 68.5091C57.2513 67.3636 57.0141 66 56.1014 65.0909ZM53.0897 67.1091C52.962 67.9455 51.885 68.7636 49.9503 68.2909C47.7052 67.7091 45.6061 66.6545 43.7991 65.2182C45.3688 64.9818 48.8734 64.6182 51.3922 65.0909C52.3596 65.3273 53.327 65.9091 53.0897 67.1091ZM32.9388 42.7273C33.1395 42.3818 33.5046 42.1636 33.9061 42.1273C34.9831 42.1273 35.2386 43.4364 35.2386 44.4909C35.1108 47 34.6363 49.4545 33.7966 51.8364C31.9714 47.1091 32.3364 43.7818 32.9388 42.7273ZM32.7015 65.6727C33.7419 63.5091 34.6728 61.3091 35.4759 59.0545C36.5893 60.8 37.8852 62.4182 39.3454 63.9091C39.3272 64.0182 35.5854 64.7273 32.7015 65.6727ZM25.5829 70.4182C22.8085 74.9091 19.9063 77.7636 18.3366 77.7636C18.0811 77.7455 17.8255 77.6545 17.6065 77.5273C17.2414 77.2909 17.0954 76.8545 17.2414 76.4545C17.6065 74.8 20.746 72.5455 25.5829 70.4182Z" fill="#0891B2"/>
</g>
<defs>
<clipPath id="clip0_4011_27603">
<rect width="72" height="96" fill="white"/>
</clipPath>
</defs>
</svg>
