<svg width="72" height="96" viewBox="0 0 72 96" fill="none" xmlns="http://www.w3.org/2000/svg">
<g clip-path="url(#clip0_4174_31563)">
<path d="M72 29.3V89.6C72 91.84 72 92.96 71.56 93.82C71.18 94.56 70.56 95.18 69.82 95.56C68.96 96 67.84 96 65.6 96H6.4C4.16 96 3.04 96 2.18 95.56C1.44 95.18 0.82 94.56 0.44 93.82C0 92.96 0 91.84 0 89.6V6.4C0 4.16 0 3.04 0.44 2.18C0.82 1.44 1.44 0.82 2.18 0.44C3.04 0 4.16 0 6.4 0H42.7C44.66 0 45.64 0 46.56 0.22C47.06 0.34 47.54 0.5 48 0.72V17.6C48 19.84 48 20.96 48.44 21.82C48.82 22.56 49.44 23.18 50.18 23.56C51.04 24 52.16 24 54.4 24H71.28C71.5 24.46 71.66 24.94 71.78 25.44C72 26.36 72 27.34 72 29.3V29.3Z" fill="#A5F3FC"/>
<path d="M68.26 20.26C69.64 21.64 70.32 22.32 70.82 23.14C71 23.42 71.14 23.7 71.28 24H54.4C52.16 24 51.04 24 50.18 23.56C49.44 23.18 48.82 22.56 48.44 21.82C48 20.96 48 19.84 48 17.6V0.719971C48.3 0.859971 48.58 0.999971 48.86 1.17997C49.68 1.67997 50.36 2.35997 51.74 3.73997L68.26 20.26Z" fill="#06B6D4"/>
<path d="M43 51.25C43 47.7982 40.2018 45 36.75 45H22.25C18.7982 45 16 47.7982 16 51.25V68.75C16 72.2018 18.7982 75 22.25 75H36.75C40.2018 75 43 72.2018 43 68.75V51.25ZM45 65.5316L51.9612 70.9681C53.6027 72.25 56 71.0804 56 68.9978V51.0027C56 48.92 53.6026 47.7505 51.9612 49.0324L45 54.469V65.5316Z" fill="#0891B2"/>
</g>
<defs>
<clipPath id="clip0_4174_31563">
<rect width="72" height="96" fill="white"/>
</clipPath>
</defs>
</svg>
