<svg width="18" height="18" viewBox="0 0 18 18" fill="none" xmlns="http://www.w3.org/2000/svg">
<path d="M6 1C6 0.447715 5.55228 0 5 0C4.44772 0 4 0.447715 4 1V3.5C4 3.77614 3.77614 4 3.5 4H1C0.447715 4 0 4.44772 0 5C0 5.55228 0.447715 6 1 6H3.5C4.88071 6 6 4.88071 6 3.5V1ZM6 17C6 17.5523 5.55228 18 5 18C4.44772 18 4 17.5523 4 17V14.5C4 14.2239 3.77614 14 3.5 14H1C0.447715 14 0 13.5523 0 13C0 12.4477 0.447715 12 1 12H3.5C4.88071 12 6 13.1193 6 14.5V17ZM13 0C12.4477 0 12 0.447715 12 1V3.5C12 4.88071 13.1193 6 14.5 6H17C17.5523 6 18 5.55228 18 5C18 4.44772 17.5523 4 17 4H14.5C14.2239 4 14 3.77614 14 3.5V1C14 0.447715 13.5523 0 13 0ZM12 17C12 17.5523 12.4477 18 13 18C13.5523 18 14 17.5523 14 17V14.5C14 14.2239 14.2239 14 14.5 14H17C17.5523 14 18 13.5523 18 13C18 12.4477 17.5523 12 17 12H14.5C13.1193 12 12 13.1193 12 14.5V17Z" fill="#D1D1D6"/>
</svg>
