<svg width="18" height="18" viewBox="0 0 18 18" fill="none" xmlns="http://www.w3.org/2000/svg">
<path d="M2 3C2 2.44772 2.44772 2 3 2H5C5.55228 2 6 1.55228 6 1C6 0.447715 5.55228 0 5 0H3C1.34315 0 0 1.34315 0 3V5C0 5.55228 0.447715 6 1 6C1.55228 6 2 5.55228 2 5V3ZM2 15C2 15.5523 2.44772 16 3 16H5C5.55228 16 6 16.4477 6 17C6 17.5523 5.55228 18 5 18H3C1.34315 18 0 16.6569 0 15V13C0 12.4477 0.447715 12 1 12C1.55228 12 2 12.4477 2 13V15ZM15 2C15.5523 2 16 2.44772 16 3V5C16 5.55228 16.4477 6 17 6C17.5523 6 18 5.55228 18 5V3C18 1.34315 16.6569 0 15 0H13C12.4477 0 12 0.447715 12 1C12 1.55228 12.4477 2 13 2H15ZM16 15C16 15.5523 15.5523 16 15 16H13C12.4477 16 12 16.4477 12 17C12 17.5523 12.4477 18 13 18H15C16.6569 18 18 16.6569 18 15V13C18 12.4477 17.5523 12 17 12C16.4477 12 16 12.4477 16 13V15Z" fill="#344054"/>
</svg>

