<svg width="24" height="24" viewBox="0 0 24 24" fill="#70707B" xmlns="http://www.w3.org/2000/svg">
<path d="M12 2C17.5228 2 22 6.47715 22 12V19C22 20.6569 20.6569 22 19 22H16C15.4477 22 15 21.5523 15 21V15C15 14.4477 15.4477 14 16 14H20.5V12C20.5 7.30558 16.6944 3.5 12 3.5C7.30558 3.5 3.5 7.30558 3.5 12V14H8C8.55228 14 9 14.4477 9 15V21C9 21.5523 8.55228 22 8 22H5C3.34315 22 2 20.6569 2 19V12C2 6.47715 6.47715 2 12 2Z"/>
<path d="M2.88667 2.21966C3.17956 1.92677 3.65444 1.92678 3.94733 2.21968L22.4471 20.7198C22.74 21.0127 22.74 21.4876 22.4471 21.7805C22.1542 22.0734 21.6793 22.0734 21.3864 21.7805L2.88666 3.28032C2.59377 2.98743 2.59377 2.51255 2.88667 2.21966Z" fill="#D92D20"/>
</svg>
