<svg width="5" height="8" viewBox="0 0 5 8" fill="#616161" xmlns="http://www.w3.org/2000/svg">
<path d="M4.1875 3.16699V2.33366C4.1875 1.40033 3.375 0.666992 2.5 0.666992C1.625 0.666992 0.833333 1.40033 0.833333 2.33366V3.16699C0.373083 3.16699 0 3.54009 0 4.00032V6.50032C0 6.96056 0.373083 7.33366 0.833333 7.33366H2.5H4.16667C4.62692 7.33366 5 6.96056 5 6.50032V3.97949C5 3.53076 4.63625 3.16699 4.1875 3.16699ZM3.33333 3.16699H1.66667V2.33366C1.66667 1.85747 2.05558 1.50033 2.5 1.50033C2.94442 1.50033 3.33333 1.85747 3.33333 2.33366V3.16699Z" />
</svg>
