<svg width="24" height="24" viewBox="0 0 24 24" fill="none" xmlns="http://www.w3.org/2000/svg">
<path d="M3 2H21C21.2652 2 21.5196 2.11706 21.7071 2.32544C21.8946 2.53381 22 2.81643 22 3.11111V20.8889C22 21.1836 21.8946 21.4662 21.7071 21.6746C21.5196 21.8829 21.2652 22 21 22H3C2.73478 22 2.48043 21.8829 2.29289 21.6746C2.10536 21.4662 2 21.1836 2 20.8889V3.11111C2 2.81643 2.10536 2.53381 2.29289 2.32544C2.48043 2.11706 2.73478 2 3 2ZM7 15.8889V11.4444L9 13.6667L11 11.4444V15.8889H13V8.11111H11L9 10.3333L7 8.11111H5V15.8889H7ZM18 12.5556V8.11111H16V12.5556H14L17 15.8889L20 12.5556H18Z" fill="#667085"/>
</svg>
