<svg width="16" height="16" viewBox="0 0 16 16" fill="none" xmlns="http://www.w3.org/2000/svg">
<path d="M10.8089 11.5159L14.1464 14.8535C14.3417 15.0488 14.6583 15.0488 14.8536 14.8535C15.0488 14.6582 15.0488 14.3416 14.8536 14.1464L1.85355 1.14639C1.65829 0.951123 1.34171 0.951123 1.14645 1.14639C0.951184 1.34165 0.951184 1.65823 1.14645 1.85349L5.5 6.20705V7.99999C5.5 9.3807 6.61929 10.5 8 10.5C8.50955 10.5 8.9835 10.3475 9.37872 10.0858L10.0961 10.8032C9.51182 11.2408 8.78618 11.5 8 11.5C6.067 11.5 4.5 9.93298 4.5 7.99999C4.5 7.72384 4.27614 7.49999 4 7.49999C3.72386 7.49999 3.5 7.72384 3.5 7.99999C3.5 10.3163 5.25003 12.2238 7.5 12.4725V13.5C7.5 13.7761 7.72386 14 8 14C8.27614 14 8.5 13.7761 8.5 13.5V12.4725C9.36794 12.3766 10.1615 12.0338 10.8089 11.5159ZM12.0614 9.9401L11.2975 9.17613C11.4286 8.80854 11.5 8.4126 11.5 7.99999C11.5 7.72384 11.7239 7.49999 12 7.49999C12.2761 7.49999 12.5 7.72384 12.5 7.99999C12.5 8.6947 12.3426 9.35265 12.0614 9.9401ZM10.4752 8.3538L5.68233 3.56098C6.05357 2.64558 6.95139 1.99999 8 1.99999C9.38071 1.99999 10.5 3.11927 10.5 4.49999V7.99999C10.5 8.12009 10.4915 8.23822 10.4752 8.3538Z" fill="#667085"/>
<path d="M14.1464 14.8535L10.8089 11.5159L5.5 6.20705L1.14645 1.85349C0.951184 1.65823 0.951184 1.34165 1.14645 1.14639C1.34171 0.951123 1.65829 0.951123 1.85355 1.14639L14.8536 14.1464C15.0488 14.3416 15.0488 14.6582 14.8536 14.8535C14.6583 15.0488 14.3417 15.0488 14.1464 14.8535Z" fill="#D92D20"/>
</svg>

