<svg width="16" height="16" viewBox="0 0 16 16" fill="none" xmlns="http://www.w3.org/2000/svg">
<path d="M2.18693 1.47995C1.99167 1.28468 1.67509 1.28468 1.47982 1.47994C1.28456 1.6752 1.28456 1.99178 1.47982 2.18705L5.33337 6.04068V8.00016C5.33337 9.47292 6.52728 10.6668 8.00004 10.6668C8.55568 10.6668 9.07164 10.4969 9.49876 10.2061L10.2627 10.9701C9.67842 11.4077 8.95283 11.6668 8.16671 11.6668H7.83337L7.6891 11.6639C5.82301 11.5883 4.33337 10.0515 4.33337 8.16683V7.8335L4.32881 7.76565C4.2957 7.5216 4.0865 7.3335 3.83337 7.3335C3.55723 7.3335 3.33337 7.55735 3.33337 7.8335V8.16683L3.33608 8.32439C3.41526 10.6255 5.22219 12.4879 7.50006 12.6547L7.50004 14.1668L7.50461 14.2347C7.53771 14.4787 7.74691 14.6668 8.00004 14.6668C8.27618 14.6668 8.50004 14.443 8.50004 14.1668L8.5007 12.6546C9.43335 12.5862 10.287 12.2335 10.9754 11.6829L13.813 14.5205C14.0083 14.7157 14.3248 14.7157 14.5201 14.5205C14.7154 14.3252 14.7154 14.0086 14.5201 13.8134L2.18693 1.47995ZM11.4641 9.3431L12.2281 10.1071C12.5093 9.51959 12.6667 8.8616 12.6667 8.16683V7.8335L12.6621 7.76565C12.629 7.5216 12.4198 7.3335 12.1667 7.3335C11.8906 7.3335 11.6667 7.55735 11.6667 7.8335V8.16683L11.6638 8.3111C11.6492 8.67185 11.5799 9.01853 11.4641 9.3431ZM5.42516 3.304L10.6201 8.49906C10.6507 8.33745 10.6667 8.17067 10.6667 8.00016V4.00016C10.6667 2.5274 9.4728 1.3335 8.00004 1.3335C6.76813 1.3335 5.73132 2.16884 5.42516 3.304Z" fill="#D1D1D6"/>
<path d="M1.47982 1.47994C1.67509 1.28468 1.99167 1.28468 2.18693 1.47995L14.5201 13.8134C14.7154 14.0086 14.7154 14.3252 14.5201 14.5205C14.3248 14.7157 14.0083 14.7157 13.813 14.5205L1.47982 2.18705C1.28456 1.99178 1.28456 1.6752 1.47982 1.47994Z" fill="#D92D20"/>
</svg>
