<svg viewBox="0 0 24 24" width="24px" height="24px" fill="#78787C" xmlns="http://www.w3.org/2000/svg">
  <path d="M 3.28 2.22 C 2.987 1.927 2.513 1.927 2.22 2.22 C 1.927 2.513 1.927 2.987 2.22 3.28 L 8 9.061 L 8 12 C 8 14.209 9.791 16 12 16 C 12.834 16 13.607 15.745 14.248 15.309 L 15.394 16.455 C 14.518 17.111 13.429 17.5 12.25 17.5 L 11.75 17.5 L 11.534 17.496 C 8.734 17.382 6.5 15.077 6.5 12.25 L 6.5 11.75 L 6.493 11.648 C 6.443 11.282 6.13 11 5.75 11 C 5.336 11 5 11.336 5 11.75 L 5 12.25 L 5.004 12.486 C 5.123 15.938 7.833 18.732 11.25 18.982 L 11.25 21.25 L 11.257 21.352 C 11.306 21.718 11.62 22 12 22 C 12.414 22 12.75 21.664 12.75 21.25 L 12.751 18.982 C 14.15 18.879 15.431 18.35 16.463 17.524 L 20.719 21.781 C 21.012 22.073 21.487 22.073 21.78 21.781 C 22.073 21.488 22.073 21.013 21.78 20.72 L 3.28 2.22 Z M 17.196 14.014 L 18.342 15.16 C 18.764 14.279 19 13.292 19 12.25 L 19 11.75 L 18.993 11.648 C 18.943 11.282 18.63 11 18.25 11 C 17.836 11 17.5 11.336 17.5 11.75 L 17.5 12.25 L 17.496 12.466 C 17.474 13.008 17.37 13.528 17.196 14.014 Z M 8.138 4.956 L 15.93 12.748 C 15.976 12.506 16 12.256 16 12 L 16 6 C 16 3.791 14.209 2 12 2 C 10.152 2 8.597 3.253 8.138 4.956 Z"/>
  <path d="M 2.22 2.22 C 2.513 1.927 2.987 1.927 3.28 2.22 L 21.78 20.72 C 22.073 21.013 22.073 21.488 21.78 21.781 C 21.487 22.073 21.012 22.073 20.719 21.781 L 2.22 3.28 C 1.927 2.987 1.927 2.513 2.22 2.22 Z" fill="#D92D20"/>
</svg>