<svg width="24" height="24" viewBox="0 0 24 24" fill="#78787C" xmlns="http://www.w3.org/2000/svg">
<path d="M3.94733 2.21968C3.65444 1.92678 3.17956 1.92677 2.88667 2.21966C2.59377 2.51255 2.59377 2.98743 2.88666 3.28032L8.66699 9.06078V12C8.66699 14.2091 10.4579 16 12.667 16C13.5005 16 14.2744 15.7451 14.9151 15.309L16.061 16.4549C15.1846 17.1112 14.0962 17.5 12.917 17.5H12.417L12.2006 17.4956C9.40144 17.3821 7.16699 15.077 7.16699 12.25V11.75L7.16015 11.6482C7.11048 11.2822 6.79669 11 6.41699 11C6.00278 11 5.66699 11.3358 5.66699 11.75V12.25L5.67105 12.4863C5.78983 15.938 8.50022 18.7316 11.917 18.9818L11.917 21.25L11.9238 21.3518C11.9735 21.7178 12.2873 22 12.667 22C13.0812 22 13.417 21.6642 13.417 21.25L13.418 18.9817C14.8169 18.8791 16.0975 18.35 17.1301 17.5241L21.3864 21.7805C21.6793 22.0734 22.1542 22.0734 22.4471 21.7805C22.74 21.4876 22.74 21.0127 22.4471 20.7198L3.94733 2.21968ZM17.8631 14.0144L19.0091 15.1604C19.4308 14.2791 19.667 13.2921 19.667 12.25V11.75L19.6601 11.6482C19.6105 11.2822 19.2967 11 18.917 11C18.5028 11 18.167 11.3358 18.167 11.75V12.25L18.1626 12.4664C18.1407 13.0075 18.0368 13.5276 17.8631 14.0144ZM8.80467 4.95575L16.5971 12.7483C16.643 12.5059 16.667 12.2558 16.667 12V6C16.667 3.79086 14.8761 2 12.667 2C10.8191 2 9.26391 3.25302 8.80467 4.95575Z" />
<path d="M2.88667 2.21966C3.17956 1.92677 3.65444 1.92678 3.94733 2.21968L22.4471 20.7198C22.74 21.0127 22.74 21.4876 22.4471 21.7805C22.1542 22.0734 21.6793 22.0734 21.3864 21.7805L2.88666 3.28032C2.59377 2.98743 2.59377 2.51255 2.88667 2.21966Z" fill="#D92D20"/>
</svg>
