<svg t="1755262824384" class="icon" viewBox="0 0 1024 1024" version="1.1"
  xmlns="http://www.w3.org/2000/svg" p-id="3149" width="24" height="24">
  <path
    d="M733.333333 436.746667V247.52a5.333333 5.333333 0 0 0-2.773333-4.693333l-216.053333-117.333334a5.333333 5.333333 0 0 0-5.013334 0L293.333333 242.826667a5.333333 5.333333 0 0 0-2.773333 4.693333v189.226667a5.333333 5.333333 0 0 1-2.773333 4.64L109.44 538.133333a5.333333 5.333333 0 0 0-2.773333 4.693334v233.653333a5.333333 5.333333 0 0 0 2.773333 4.693333l216.053333 117.333334a5.333333 5.333333 0 0 0 5.013334 0l178.986666-97.013334a5.333333 5.333333 0 0 1 5.013334 0L693.333333 898.293333a5.333333 5.333333 0 0 0 5.013334 0l216.053333-117.333333a5.333333 5.333333 0 0 0 2.773333-4.693333v-233.44a5.333333 5.333333 0 0 0-2.773333-4.693334L736 441.386667a5.333333 5.333333 0 0 1-2.666667-4.64z m-77.333333 4.64l-98.72 53.333333a5.333333 5.333333 0 0 1-7.84-4.693333V393.333333a5.333333 5.333333 0 0 1 2.773333-4.693333l98.72-53.333333a5.333333 5.333333 0 0 1 7.84 4.64v96.8a5.333333 5.333333 0 0 1-2.773333 4.64zM514.506667 210.666667l96 52.053333a5.333333 5.333333 0 0 1 0 9.333333l-96 52.053334a5.333333 5.333333 0 0 1-5.013334 0L413.44 272a5.333333 5.333333 0 0 1 0-9.333333l96-52.053334a5.333333 5.333333 0 0 1 5.066667 0.053334zM229.333333 558.026667l96-52.053334a5.333333 5.333333 0 0 1 5.013334 0l96 52.053334a5.333333 5.333333 0 0 1 0 9.333333l-96 52.053333a5.333333 5.333333 0 0 1-5.013334 0l-96-52.053333a5.333333 5.333333 0 0 1 0-9.333333z m138.666667 125.92l98.72-53.333334a5.333333 5.333333 0 0 1 7.84 4.64v96.96a5.333333 5.333333 0 0 1-2.773333 4.64L373.333333 790.24a5.333333 5.333333 0 0 1-7.84-4.693333v-96.906667a5.333333 5.333333 0 0 1 2.506667-4.693333z m229.333333-125.92l96-52.053334a5.333333 5.333333 0 0 1 5.013334 0l96 52.053334a5.333333 5.333333 0 0 1 0 9.333333l-96 52.053333a5.333333 5.333333 0 0 1-5.013334 0l-96-52.053333a5.333333 5.333333 0 0 1 0-9.333333z m242.453334 178.666666l-98.72 53.333334a5.333333 5.333333 0 0 1-7.84-4.693334v-96.693333a5.333333 5.333333 0 0 1 2.773333-4.693333l98.72-53.333334a5.333333 5.333333 0 0 1 7.84 4.64v96.96a5.333333 5.333333 0 0 1-2.666667 4.48z"
    p-id="3150"></path>
</svg>