<svg width="24" height="24" viewBox="0 0 24 24" fill="#D2D1D1" xmlns="http://www.w3.org/2000/svg">
<path fill-rule="evenodd" clip-rule="evenodd" d="M3.02618 13.4991V9.01525C3.02618 4.06024 7.04347 0.0427975 11.9998 0.0427975C13.5448 0.0518677 15.063 0.462697 16.401 1.23953L2.88215 14.7543C2.97517 14.3433 3.02321 13.9234 3.02618 13.5006V13.4991ZM23.5176 2.61634L20.3328 5.79838C20.7454 6.82118 20.963 7.91295 20.9674 9.01525V13.4991C20.9614 15.3857 21.8495 17.1612 23.36 18.2859C23.8761 18.6729 24.0861 19.3477 23.8807 19.9597C23.6751 20.5715 23.1005 20.9823 22.4555 20.9793H14.9745C14.9745 22.629 13.6349 23.9682 11.9817 23.9682C10.3287 23.9682 8.98911 22.6304 8.98911 20.9793H5.14434L2.60166 23.5288C2.22366 23.9276 1.66113 24.0895 1.13159 23.9516C0.599032 23.8137 0.1835 23.3967 0.046977 22.8673C-0.0880248 22.3365 0.0724881 21.7726 0.470035 21.3978L21.3874 0.482303C21.7625 0.0774777 22.3296 -0.0904547 22.865 0.047466C23.4006 0.182452 23.8176 0.602218 23.9542 1.13629C24.0891 1.6701 23.9211 2.23699 23.5161 2.61341L23.5176 2.61634Z" />
</svg>
