<svg width="18" height="18" viewBox="0 0 18 18" fill="none" xmlns="http://www.w3.org/2000/svg">
<path d="M1.5 3.25C1.5 2.2835 2.2835 1.5 3.25 1.5H7.25C7.66421 1.5 8 1.16421 8 0.75C8 0.335786 7.66421 0 7.25 0H3.25C1.45507 0 0 1.45507 0 3.25V14.75C0 16.5449 1.45507 18 3.25 18H14.75C16.5449 18 18 16.5449 18 14.75V10.75C18 10.3358 17.6642 10 17.25 10C16.8358 10 16.5 10.3358 16.5 10.75V14.75C16.5 15.7165 15.7165 16.5 14.75 16.5H9V11.75C9 10.2312 7.76878 9 6.25 9H1.5V3.25ZM1.5 10.5H6.25C6.94036 10.5 7.5 11.0596 7.5 11.75V16.5H3.25C2.2835 16.5 1.5 15.7165 1.5 14.75V10.5ZM10 0.75C10 0.335786 10.3358 0 10.75 0H17.2505C17.6647 0 18.0005 0.335786 18.0005 0.75V7.25C18.0005 7.66421 17.6647 8 17.2505 8C16.8362 8 16.5005 7.66421 16.5005 7.25V2.56074L11.2803 7.78036C10.9874 8.07324 10.5125 8.07321 10.2196 7.7803C9.92676 7.48739 9.92679 7.01252 10.2197 6.71964L15.4399 1.5H10.75C10.3358 1.5 10 1.16421 10 0.75Z" fill="#D1D1D6"/>
</svg>
