<svg width="18" height="18" viewBox="0 0 18 18" fill="none" xmlns="http://www.w3.org/2000/svg">
<path d="M5.75 10C6.99264 10 8 11.0074 8 12.25V15.75C8 16.9926 6.99264 18 5.75 18H2.25C1.00736 18 0 16.9926 0 15.75V12.25C0 11.0074 1.00736 10 2.25 10H5.75ZM15.75 10C16.9926 10 18 11.0074 18 12.25V15.75C18 16.9926 16.9926 18 15.75 18H12.25C11.0074 18 10 16.9926 10 15.75V12.25C10 11.0074 11.0074 10 12.25 10H15.75ZM15.75 0C16.9926 0 18 1.00736 18 2.25V5.75C18 6.99264 16.9926 8 15.75 8H2.25C1.00736 8 0 6.99264 0 5.75V2.25C0 1.00736 1.00736 0 2.25 0H15.75Z" fill="#D1D1D6"/>
</svg>
