<svg width="40" height="41" viewBox="0 0 40 41" fill="none" xmlns="http://www.w3.org/2000/svg">
<path d="M0 20.5C0 9.45431 8.95431 0.5 20 0.5C31.0457 0.5 40 9.45431 40 20.5C40 31.5457 31.0457 40.5 20 40.5C8.95431 40.5 0 31.5457 0 20.5Z" fill="#FDE272"/>
<path d="M25.5 20.5C28.5376 20.5 31 22.9624 31 26C31 29.0376 28.5376 31.5 25.5 31.5C22.4624 31.5 20 29.0376 20 26C20 22.9624 22.4624 20.5 25.5 20.5ZM12 21.499L20.8094 21.5002C19.6887 22.6681 19 24.2536 19 26C19 27.0874 19.267 28.1124 19.739 29.013C18.6887 29.363 17.5306 29.5 16.5 29.5C13.7779 29.5 10.1647 28.544 10.0055 25.2296L10 25V23.499C10 22.395 10.896 21.499 12 21.499ZM25.5 22.5016L25.4101 22.5096C25.206 22.5467 25.0451 22.7076 25.0081 22.9117L25 23.0016V25.4996L22.5 25.5L22.4101 25.5081C22.206 25.5451 22.0451 25.706 22.0081 25.9101L22 26L22.0081 26.0899C22.0451 26.294 22.206 26.4549 22.4101 26.4919L22.5 26.5L25 26.4996V29L25.0081 29.0899C25.0451 29.294 25.206 29.4549 25.4101 29.4919L25.5 29.5L25.5899 29.4919C25.794 29.4549 25.9549 29.294 25.9919 29.0899L26 29V26.4996L28.5 26.5L28.5899 26.4919C28.794 26.4549 28.9549 26.294 28.9919 26.0899L29 26L28.9919 25.9101C28.9549 25.706 28.794 25.5451 28.5899 25.5081L28.5 25.5L26 25.4996V23.0016L25.9919 22.9117C25.9549 22.7076 25.794 22.5467 25.5899 22.5096L25.5 22.5016ZM16.5 10.5C18.985 10.5 21 12.515 21 15C21 17.485 18.985 19.5 16.5 19.5C14.015 19.5 12 17.485 12 15C12 12.515 14.015 10.5 16.5 10.5ZM25.5 12.5C27.433 12.5 29 14.067 29 16C29 17.933 27.433 19.5 25.5 19.5C23.567 19.5 22 17.933 22 16C22 14.067 23.567 12.5 25.5 12.5Z" fill="white"/>
</svg>
