<svg width="40" height="41" viewBox="0 0 40 41" fill="none" xmlns="http://www.w3.org/2000/svg">
<path d="M0 20.5C0 9.45431 8.95431 0.5 20 0.5C31.0457 0.5 40 9.45431 40 20.5C40 31.5457 31.0457 40.5 20 40.5C8.95431 40.5 0 31.5457 0 20.5Z" fill="#ACDC79"/>
<path d="M20 10.5C25.523 10.5 30 14.978 30 20.5C30 26.022 25.523 30.5 20 30.5C14.477 30.5 10 26.022 10 20.5C10 14.978 14.477 10.5 20 10.5ZM20 24C19.4477 24 19 24.4477 19 25C19 25.5523 19.4477 26 20 26C20.5523 26 21 25.5523 21 25C21 24.4477 20.5523 24 20 24ZM20 15.25C18.4812 15.25 17.25 16.4812 17.25 18C17.25 18.4142 17.5858 18.75 18 18.75C18.3797 18.75 18.6935 18.4678 18.7432 18.1018L18.75 18C18.75 17.3096 19.3096 16.75 20 16.75C20.6904 16.75 21.25 17.3096 21.25 18C21.25 18.5388 21.115 18.8053 20.6051 19.3322L20.4697 19.4697C19.5916 20.3478 19.25 20.9171 19.25 22C19.25 22.4142 19.5858 22.75 20 22.75C20.4142 22.75 20.75 22.4142 20.75 22C20.75 21.4612 20.885 21.1947 21.3949 20.6678L21.5303 20.5303C22.4084 19.6522 22.75 19.0829 22.75 18C22.75 16.4812 21.5188 15.25 20 15.25Z" fill="white"/>
</svg>
