<svg width="40" height="41" viewBox="0 0 40 41" fill="none" xmlns="http://www.w3.org/2000/svg">
<path d="M0 20.5C0 9.45431 8.95431 0.5 20 0.5C31.0457 0.5 40 9.45431 40 20.5C40 31.5457 31.0457 40.5 20 40.5C8.95431 40.5 0 31.5457 0 20.5Z" fill="#BDB4FE"/>
<path d="M30 20.5C30 14.9772 25.5228 10.5 20 10.5C14.4772 10.5 10 14.9772 10 20.5C10 22.1428 10.3972 23.7294 11.1449 25.1502L10.0285 29.4386C9.99198 29.5791 9.99199 29.7266 10.0286 29.867C10.1469 30.3213 10.6111 30.5937 11.0654 30.4753L15.3558 29.3583C16.7752 30.1039 18.3596 30.5 20 30.5C25.5228 30.5 30 26.0228 30 20.5ZM20 16.5C21.1046 16.5 22 17.3954 22 18.5V22.5C22 23.6046 21.1046 24.5 20 24.5H17C15.8954 24.5 15 23.6046 15 22.5V18.5C15 17.3954 15.8954 16.5 17 16.5H20ZM23 21.6619V19.3382L24.7344 17.6963C25.2125 17.2437 26 17.5826 26 18.2409V22.7591C26 23.4174 25.2125 23.7563 24.7344 23.3037L23 21.6619Z" fill="white"/>
</svg>
