<svg width="40" height="41" viewBox="0 0 40 41" fill="none" xmlns="http://www.w3.org/2000/svg">
<path d="M0 20.5C0 9.45431 8.95431 0.5 20 0.5C31.0457 0.5 40 9.45431 40 20.5C40 31.5457 31.0457 40.5 20 40.5C8.95431 40.5 0 31.5457 0 20.5Z" fill="#FF9C66"/>
<path d="M16.2554 17.4999C17.2219 17.4999 18.0054 18.2834 18.0054 19.2499V28.75C18.0054 29.7165 17.2219 30.5 16.2554 30.5H11.751C10.7845 30.5 10.001 29.7165 10.001 28.75V19.2499C10.001 18.2834 10.7845 17.4999 11.751 17.4999H16.2554ZM14.2532 26.9952H13.7532L13.6514 27.002C13.2853 27.0517 13.0032 27.3655 13.0032 27.7452C13.0032 28.1249 13.2853 28.4387 13.6514 28.4883L13.7532 28.4952H14.2532L14.355 28.4883C14.721 28.4387 15.0032 28.1249 15.0032 27.7452C15.0032 27.3655 14.721 27.0517 14.355 27.002L14.2532 26.9952ZM27.7504 10.5C28.9412 10.5 29.916 11.4252 29.9952 12.596L30.0004 12.75V21.75C30.0004 22.9409 29.0752 23.9156 27.9044 23.9948L27.7504 24H24.0044V26H25.2504C25.6646 26 26.0004 26.3358 26.0004 26.75C26.0004 27.1297 25.7182 27.4435 25.3521 27.4932L25.2504 27.5H19.0004V26H22.5044V24H19.0004V19C19.0004 17.6745 17.9688 16.59 16.6647 16.5053L16.5004 16.5H12.0004V12.75C12.0004 11.5591 12.9255 10.5844 14.0963 10.5052L14.2504 10.5H27.7504Z" fill="white"/>
</svg>
