<svg width="120" height="116" viewBox="0 0 120 116" fill="none" xmlns="http://www.w3.org/2000/svg">
<circle cx="90.0398" cy="36.9398" r="5.53066" transform="rotate(-36.9067 90.0398 36.9398)" fill="#EAECF0"/>
<circle cx="105.836" cy="25.0337" r="10.1764" transform="rotate(-36.9067 105.836 25.0337)" fill="#EAECF0"/>
<path d="M81.3393 9.60212C81.9873 9.11548 82.65 8.66237 83.3254 8.24248C84.2382 7.67505 84.25 6.30085 83.2837 5.83047C72.6454 0.652199 60.3296 -1.32614 47.7902 0.909375C16.2812 6.52674 -4.70799 36.6235 0.909375 68.1324C2.01072 74.3101 4.05304 80.0833 6.86249 85.331L1.20284 102.916C0.676969 104.55 2.13172 106.135 3.80448 105.75L20.2484 101.965C32.9879 112.87 50.3349 118.186 68.1324 115.013C97.6843 109.745 117.983 82.9433 115.756 53.6394C115.684 52.6928 114.554 52.2487 113.795 52.8188C101.861 61.7813 84.9213 59.3724 75.9589 47.4384C66.9964 35.5045 69.4053 18.5646 81.3393 9.60212Z" fill="#EAECF0"/>
</svg>
