<svg width="20" height="16" viewBox="0 0 20 16" fill="none" xmlns="http://www.w3.org/2000/svg">
<path d="M2.25 0C1.00736 0 0 1.00736 0 2.25V13.75C0 14.9926 1.00736 16 2.25 16H17.75C18.9926 16 20 14.9926 20 13.75V2.25C20 1.00736 18.9926 0 17.75 0H2.25ZM10.5303 3.46515L13.7848 6.71967C14.0777 7.01256 14.0777 7.48744 13.7848 7.78033C13.4919 8.07322 13.0171 8.07322 12.7242 7.78033L10.75 5.80614V12.2528C10.75 12.6671 10.4142 13.0028 9.99999 13.0028C9.58578 13.0028 9.24999 12.6671 9.24999 12.2528V5.80793L7.2807 7.77996C6.98801 8.07306 6.51314 8.07339 6.22004 7.7807C5.92694 7.48801 5.92661 7.01314 6.2193 6.72004L9.46929 3.46552C9.60991 3.32471 9.80073 3.24555 9.99973 3.24548C10.1987 3.24541 10.3896 3.32444 10.5303 3.46515Z" fill="#344054"/>
</svg>
