<svg width="25" height="24" viewBox="0 0 25 24" fill="#344054" xmlns="http://www.w3.org/2000/svg">
<path d="M4.58301 4C3.34037 4 2.33301 5.00736 2.33301 6.25V17.75C2.33301 18.9926 3.34037 20 4.58301 20H20.083C21.3256 20 22.333 18.9926 22.333 17.75V6.25C22.333 5.00736 21.3256 4 20.083 4H4.58301ZM12.8633 7.46515L16.1178 10.7197C16.4107 11.0126 16.4107 11.4874 16.1178 11.7803C15.825 12.0732 15.3501 12.0732 15.0572 11.7803L13.083 9.80614V16.2528C13.083 16.6671 12.7472 17.0028 12.333 17.0028C11.9188 17.0028 11.583 16.6671 11.583 16.2528V9.80793L9.61371 11.78C9.32102 12.0731 8.84614 12.0734 8.55305 11.7807C8.25995 11.488 8.25962 11.0131 8.55231 10.72L11.8023 7.46552C11.9429 7.32471 12.1337 7.24555 12.3327 7.24548C12.5317 7.24541 12.7226 7.32444 12.8633 7.46515Z" />
</svg>
