<svg width="18" height="15" viewBox="0 0 18 15" fill="none" xmlns="http://www.w3.org/2000/svg">
<path d="M17 0C17.5523 0 18 0.447346 18 0.999166V14.0008C18 14.5527 17.5523 15 17 15C16.4477 15 16 14.5527 16 14.0008V0.999166C16 0.447346 16.4477 0 17 0ZM13 3C13.5523 3 14 3.44567 14 3.99543V14.0046C14 14.5543 13.5523 15 13 15C12.4477 15 12 14.5543 12 14.0046V3.99543C12 3.44567 12.4477 3 13 3ZM9 6C9.5523 6 10 6.4477 10 7V14C10 14.5523 9.5523 15 9 15C8.4477 15 8 14.5523 8 14V7C8 6.4477 8.4477 6 9 6ZM5 9C5.55228 9 6 9.44508 6 9.99415V14.0058C6 14.5549 5.55228 15 5 15C4.44772 15 4 14.5549 4 14.0058V9.99415C4 9.44508 4.44772 9 5 9ZM1 12C1.55228 12 2 12.4403 2 12.9836V14.0164C2 14.5597 1.55228 15 1 15C0.44772 15 0 14.5597 0 14.0164V12.9836C0 12.4403 0.44772 12 1 12Z" fill="#039855"/>
</svg>
