<svg width="14" height="14" viewBox="0 0 14 14" fill="none" xmlns="http://www.w3.org/2000/svg">
<path d="M7.99949 8.7066L13.1464 13.8536C13.3417 14.0488 13.6583 14.0488 13.8536 13.8536C14.0488 13.6583 14.0488 13.3417 13.8536 13.1464L0.853553 0.146447C0.658291 -0.0488155 0.341709 -0.0488155 0.146447 0.146446C-0.0488156 0.341709 -0.0488155 0.658291 0.146447 0.853553L3.28561 3.99272H2.49951C1.67108 3.99272 0.999512 4.66429 0.999512 5.49272V8.48171C0.999512 9.31013 1.67108 9.98171 2.49951 9.98171H4.22265L7.14909 12.8567C7.29277 12.9978 7.50713 13.039 7.69288 12.9611C7.87862 12.8832 7.99949 12.7014 7.99949 12.5V8.7066ZM10.7089 8.58768L9.91403 7.7928C9.96905 7.56065 10.0038 7.29631 10.0038 6.99854C10.0038 6.25105 9.78499 5.7152 9.57567 5.37089C9.47021 5.19743 9.36622 5.0712 9.2919 4.99104C9.25481 4.95103 9.22536 4.92276 9.2072 4.90611C9.19812 4.89779 9.19191 4.89241 9.18901 4.88994L9.19003 4.8907C8.97427 4.71871 8.93895 4.4047 9.11076 4.18873C9.28268 3.97263 9.59723 3.9368 9.81333 4.10872L9.81417 4.10939L9.81511 4.11014L9.81726 4.11187L9.82264 4.11626L9.8376 4.1288C9.84937 4.13883 9.86468 4.15223 9.883 4.16903C9.91961 4.2026 9.96842 4.24989 10.0252 4.31117C10.1387 4.4336 10.2852 4.61295 10.4302 4.85141C10.7217 5.33095 11.0038 6.04437 11.0038 6.99854C11.0038 7.63414 10.8786 8.16326 10.7089 8.58768ZM12.2258 10.1046L11.4813 9.36005C11.776 8.73181 12.0028 7.94355 12.0028 7.00403C12.0028 5.66846 11.5445 4.63641 11.084 3.93508C10.8536 3.5841 10.6238 3.31791 10.4537 3.14131C10.3688 3.05316 10.2993 2.9878 10.2526 2.94581C10.2293 2.92483 10.2118 2.90973 10.201 2.90059L10.1899 2.89137C9.97415 2.71931 9.93804 2.40449 10.11 2.18857C10.282 1.97253 10.5965 1.93684 10.8126 2.10885L10.8143 2.11023L10.8167 2.11221L10.8238 2.11796L10.8462 2.13664C10.8647 2.15226 10.8902 2.17425 10.9216 2.20253C10.9844 2.25907 11.0713 2.34095 11.1741 2.44769C11.3793 2.66087 11.6499 2.97501 11.9199 3.38625C12.4603 4.20936 13.0028 5.42933 13.0028 7.00403C13.0028 8.27807 12.6477 9.31866 12.2258 10.1046ZM7.99949 5.87826L5.18132 3.06009L7.15061 1.14184C7.29461 1.00156 7.50863 0.961173 7.69386 1.03932C7.87908 1.11748 7.99949 1.29896 7.99949 1.5V5.87826Z" fill="#667085"/>
</svg>

