<svg width="34" height="34" viewBox="0 0 34 34" fill="none" xmlns="http://www.w3.org/2000/svg">
<g filter="url(#filter0_dd_4473_35750)">
<circle cx="17" cy="16" r="14" fill="white"/>
</g>
<path fill-rule="evenodd" clip-rule="evenodd" d="M19.25 9.25H11.75C10.9216 9.25 10.25 9.92157 10.25 10.75V21.25C10.25 22.0784 10.9216 22.75 11.75 22.75H22.25C23.0784 22.75 23.75 22.0784 23.75 21.25V16.75H22.25V21.25H11.75V10.75H16.25V9.25H19.25ZM18.47 16.2175L16.4075 18.8725L14.9375 17.1025L12.875 19.75H21.125L18.47 16.2175ZM22.25 10.75H24.5V12.25H22.25V14.5H20.75V12.25H18.5V10.75H20.75V8.5H22.25V10.75Z" fill="#99AAB5"/>
<defs>
<filter id="filter0_dd_4473_35750" x="0" y="0" width="34" height="34" filterUnits="userSpaceOnUse" color-interpolation-filters="sRGB">
<feFlood flood-opacity="0" result="BackgroundImageFix"/>
<feColorMatrix in="SourceAlpha" type="matrix" values="0 0 0 0 0 0 0 0 0 0 0 0 0 0 0 0 0 0 127 0" result="hardAlpha"/>
<feOffset dy="1"/>
<feGaussianBlur stdDeviation="1"/>
<feColorMatrix type="matrix" values="0 0 0 0 0.0627451 0 0 0 0 0.0941176 0 0 0 0 0.156863 0 0 0 0.06 0"/>
<feBlend mode="normal" in2="BackgroundImageFix" result="effect1_dropShadow_4473_35750"/>
<feColorMatrix in="SourceAlpha" type="matrix" values="0 0 0 0 0 0 0 0 0 0 0 0 0 0 0 0 0 0 127 0" result="hardAlpha"/>
<feOffset dy="1"/>
<feGaussianBlur stdDeviation="1.5"/>
<feColorMatrix type="matrix" values="0 0 0 0 0.0627451 0 0 0 0 0.0941176 0 0 0 0 0.156863 0 0 0 0.1 0"/>
<feBlend mode="normal" in2="effect1_dropShadow_4473_35750" result="effect2_dropShadow_4473_35750"/>
<feBlend mode="normal" in="SourceGraphic" in2="effect2_dropShadow_4473_35750" result="shape"/>
</filter>
</defs>
</svg>
