<svg width="24" height="24" viewBox="0 0 24 24" fill="#70707B" xmlns="http://www.w3.org/2000/svg">
<path d="M17.7541 13.9999C18.9961 13.9999 20.0029 15.0068 20.0029 16.2488V17.1673C20.0029 17.7406 19.8237 18.2997 19.4903 18.7662C17.9445 20.9294 15.4202 22.0011 11.9999 22.0011C8.57891 22.0011 6.05595 20.9289 4.51379 18.7646C4.18182 18.2987 4.00342 17.7409 4.00342 17.1688V16.2488C4.00342 15.0068 5.01027 13.9999 6.25229 13.9999H17.7541ZM11.9999 2.00464C14.7613 2.00464 16.9999 4.24321 16.9999 7.00464C16.9999 9.76606 14.7613 12.0046 11.9999 12.0046C9.23845 12.0046 6.99988 9.76606 6.99988 7.00464C6.99988 4.24321 9.23845 2.00464 11.9999 2.00464Z" />
</svg>
