<svg width="25" height="24" viewBox="0 0 25 24" fill="none" xmlns="http://www.w3.org/2000/svg">
<path d="M16.5 16.25C16.5 18.0449 15.0449 19.5 13.25 19.5H5.75C3.95507 19.5 2.5 18.0449 2.5 16.25V7.75C2.5 5.95507 3.95507 4.5 5.75 4.5H13.25C15.0449 4.5 16.5 5.95507 16.5 7.75V16.25ZM22.262 5.89334C22.4156 6.07414 22.5 6.30368 22.5 6.54096V17.4588C22.5 18.0111 22.0523 18.4588 21.5 18.4588C21.2627 18.4588 21.0332 18.3744 20.8524 18.2208L17.5 15.3709V8.62794L20.8524 5.77899C21.2732 5.42132 21.9043 5.47252 22.262 5.89334Z" fill="#344054"/>
</svg>
