<svg width="28" height="28" viewBox="0 0 28 28" fill="none" xmlns="http://www.w3.org/2000/svg">
<rect x="2" y="2" width="24" height="24" rx="12" fill="#12B76A"/>
<path d="M14.9995 8.50001C14.9995 8.29898 14.8791 8.11749 14.6939 8.03934C14.5086 7.96119 14.2946 8.00157 14.1506 8.14185L11.2239 10.9927H9.49951C8.67108 10.9927 7.99951 11.6643 7.99951 12.4927V15.4817C7.99951 16.3101 8.67108 16.9817 9.49951 16.9817H11.2227L14.1491 19.8567C14.2928 19.9978 14.5071 20.039 14.6929 19.9611C14.8786 19.8832 14.9995 19.7014 14.9995 19.5V8.50001ZM16.1108 11.1887C16.2827 10.9726 16.5972 10.9368 16.8133 11.1087L16.8142 11.1094L16.8151 11.1102L16.8173 11.1119L16.8226 11.1163L16.8376 11.1288C16.8494 11.1388 16.8647 11.1522 16.883 11.169C16.9196 11.2026 16.9684 11.2499 17.0252 11.3112C17.1387 11.4336 17.2852 11.613 17.4302 11.8514C17.7217 12.331 18.0038 13.0444 18.0038 13.9986C18.0038 14.9527 17.7217 15.6669 17.4304 16.1471C17.2855 16.3859 17.1392 16.5657 17.0258 16.6884C16.9691 16.7498 16.9203 16.7973 16.8837 16.8309C16.8641 16.849 16.8439 16.8666 16.8235 16.8838L16.815 16.8907L16.8142 16.8914C16.8142 16.8914 16.3679 17.1337 16.1115 16.8129C15.9399 16.5983 15.9738 16.2858 16.1866 16.1128L16.1882 16.1115L16.1874 16.1122L16.1891 16.1108L16.1882 16.1115C16.1911 16.109 16.1974 16.1036 16.2065 16.0952C16.2247 16.0784 16.2542 16.05 16.2913 16.0098C16.3658 15.9292 16.4699 15.8025 16.5754 15.6285C16.785 15.283 17.0038 14.7461 17.0038 13.9986C17.0038 13.2511 16.785 12.7152 16.5757 12.3709C16.4702 12.1974 16.3662 12.0712 16.2919 11.9911C16.2548 11.951 16.2254 11.9228 16.2072 11.9061C16.1981 11.8978 16.1919 11.8924 16.189 11.89L16.19 11.8907C15.9743 11.7187 15.939 11.4047 16.1108 11.1887ZM17.8126 9.10886C17.5965 8.93686 17.282 8.97255 17.11 9.18858C16.938 9.40451 16.9742 9.71932 17.1899 9.89138L17.201 9.9006C17.2118 9.90975 17.2293 9.92484 17.2526 9.94582C17.2993 9.98781 17.3688 10.0532 17.4537 10.1413C17.6238 10.3179 17.8536 10.5841 18.084 10.9351C18.5445 11.6364 19.0028 12.6685 19.0028 14.004C19.0028 15.3395 18.5445 16.3694 18.0843 17.0685C17.854 17.4184 17.6243 17.6835 17.4544 17.8593C17.3696 17.947 17.3001 18.0121 17.2535 18.0538C17.2302 18.0747 17.2127 18.0897 17.2019 18.0988L17.1903 18.1083L17.1894 18.1091C16.9741 18.2808 16.9381 18.5945 17.1092 18.8105C17.2807 19.0269 17.5959 19.0628 17.8124 18.8913L17.8453 18.8642C17.8639 18.8487 17.8893 18.8268 17.9208 18.7986C17.9837 18.7423 18.0705 18.6607 18.1734 18.5543C18.3788 18.3418 18.6495 18.0286 18.9196 17.6183C19.4603 16.797 20.0028 15.5788 20.0028 14.004C20.0028 12.4293 19.4603 11.2094 18.9199 10.3863C18.6499 9.97503 18.3793 9.66089 18.1741 9.4477C18.0713 9.34097 17.9844 9.25908 17.9216 9.20255C17.8902 9.17426 17.8647 9.15228 17.8462 9.13665L17.8238 9.11798L17.8167 9.11222L17.8143 9.11024L17.8126 9.10886ZM16.189 11.89L16.1876 11.8887L16.189 11.89Z" fill="white"/>
<rect x="2" y="2" width="24" height="24" rx="12" stroke="white" stroke-width="4"/>
</svg>
