<svg width="32" height="32" viewBox="0 0 32 32" fill="none" xmlns="http://www.w3.org/2000/svg">
<rect width="32" height="32" rx="16" fill="#FEF0C7"/>
<path d="M15.9998 13.3333V16M15.9998 18.6667H16.0064M14.8598 9.90666L9.2131 19.3333C9.09668 19.5349 9.03508 19.7635 9.03443 19.9963C9.03378 20.2292 9.0941 20.4581 9.20939 20.6603C9.32468 20.8626 9.49092 21.0312 9.69157 21.1492C9.89223 21.2673 10.1203 21.3308 10.3531 21.3333H21.6464C21.8792 21.3308 22.1073 21.2673 22.308 21.1492C22.5086 21.0312 22.6749 20.8626 22.7902 20.6603C22.9054 20.4581 22.9658 20.2292 22.9651 19.9963C22.9645 19.7635 22.9029 19.5349 22.7864 19.3333L17.1398 9.90666C17.0209 9.71073 16.8536 9.54874 16.6539 9.43632C16.4542 9.32389 16.2289 9.26483 15.9998 9.26483C15.7706 9.26483 15.5453 9.32389 15.3456 9.43632C15.146 9.54874 14.9786 9.71073 14.8598 9.90666Z" stroke="#DC6803" stroke-width="1.33333" stroke-linecap="round" stroke-linejoin="round"/>
</svg>
