<svg width="32" height="32" viewBox="0 0 32 32" fill="none" xmlns="http://www.w3.org/2000/svg">
<path fill-rule="evenodd" clip-rule="evenodd" d="M32 16C32 7.16413 24.8358 0 16 0C7.16413 0 0 7.16413 0 16C0 23.9853 5.85016 30.6049 13.5002 31.8067V20.6261H9.43664V16H13.5002V12.4742C13.5002 8.46456 15.8898 6.24829 19.5438 6.24829C21.2943 6.24829 23.1258 6.56102 23.1258 6.56102V10.4986H21.1075C19.1208 10.4986 18.4998 11.7317 18.4998 12.9984V15.9999H22.9367L22.228 20.626H18.4996V31.8064C26.1498 30.6071 31.9998 23.9876 31.9998 15.9999L32 16Z" fill="#1977F3"/>
<path fill-rule="evenodd" clip-rule="evenodd" d="M22.228 20.626L22.9369 15.9999H18.4999V12.9984C18.4999 11.7339 19.1186 10.4987 21.1077 10.4987H23.126V6.56105C23.126 6.56105 21.2945 6.24829 19.5439 6.24829C15.8899 6.24829 13.5004 8.46238 13.5004 12.4742V16H9.43677V20.6261H13.5004V31.8067C14.3149 31.9347 15.1496 32 16.0001 32C16.8507 32 17.6854 31.9325 18.4999 31.8067V20.6261H22.2282L22.228 20.626Z" fill="#FEFEFE"/>
</svg>
