<svg width="24" height="24" viewBox="0 0 24 24" fill="none" xmlns="http://www.w3.org/2000/svg">
<g clip-path="url(#clip0_15905_24695)">
<path d="M23.766 12.2763C23.766 11.4605 23.6999 10.6404 23.5588 9.83789H12.24V14.4589H18.7217C18.4528 15.9492 17.5885 17.2676 16.323 18.1054V21.1037H20.19C22.4608 19.0137 23.766 15.9272 23.766 12.2763Z" fill="#4285F4"/>
<path d="M12.2401 24.0013C15.4766 24.0013 18.2059 22.9387 20.1945 21.1044L16.3276 18.106C15.2517 18.838 13.8627 19.2525 12.2445 19.2525C9.11388 19.2525 6.45946 17.1404 5.50705 14.3008H1.5166V17.3917C3.55371 21.4439 7.7029 24.0013 12.2401 24.0013Z" fill="#34A853"/>
<path d="M5.50253 14.3007C4.99987 12.8103 4.99987 11.1965 5.50253 9.70618V6.61523H1.51649C-0.18551 10.006 -0.18551 14.0009 1.51649 17.3916L5.50253 14.3007Z" fill="#FBBC04"/>
<path d="M12.2401 4.74966C13.9509 4.7232 15.6044 5.36697 16.8434 6.54867L20.2695 3.12262C18.1001 1.0855 15.2208 -0.034466 12.2401 0.000808666C7.7029 0.000808666 3.55371 2.55822 1.5166 6.61481L5.50264 9.70575C6.45064 6.86173 9.10947 4.74966 12.2401 4.74966Z" fill="#EA4335"/>
</g>
<defs>
<clipPath id="clip0_15905_24695">
<rect width="24" height="24" fill="white"/>
</clipPath>
</defs>
</svg>
