<svg width="24" height="24" viewBox="0 0 24 24" fill="none" xmlns="http://www.w3.org/2000/svg">
<path d="M4.27721 6.1562L2.49022 9.82007C0.562623 13.7722 2.20385 18.5387 6.156 20.4663L9.81988 22.2533C13.772 24.1809 18.5385 22.5396 20.4661 18.5875L22.2531 14.9236C24.1807 10.9715 22.5395 6.20499 18.5873 4.2774L14.9234 2.49041C10.9713 0.562816 6.2048 2.20404 4.27721 6.1562Z" fill="#9274F6"/>
<path d="M12.8539 14.5377L14.0382 15.7238C14.0677 15.7504 14.0914 15.7828 14.108 15.819C14.1245 15.8551 14.1336 15.8942 14.1346 15.934C14.1356 15.9737 14.1285 16.0132 14.1137 16.0501C14.099 16.0871 14.0768 16.1206 14.0487 16.1487C14.0206 16.1768 13.9871 16.1989 13.9502 16.2137C13.9133 16.2284 13.8738 16.2355 13.834 16.2345C13.7943 16.2336 13.7552 16.2245 13.719 16.2079C13.6829 16.1914 13.6505 16.1676 13.6238 16.1382L12.1461 14.6605L10.6684 16.1382C10.6417 16.1676 10.6093 16.1914 10.5732 16.2079C10.5371 16.2245 10.498 16.2336 10.4582 16.2345C10.4185 16.2355 10.3789 16.2284 10.342 16.2137C10.3051 16.1989 10.2716 16.1768 10.2435 16.1487C10.2154 16.1206 10.1933 16.0871 10.1785 16.0501C10.1638 16.0132 10.1567 15.9737 10.1576 15.934C10.1586 15.8942 10.1677 15.8551 10.1842 15.819C10.2008 15.7828 10.2245 15.7504 10.254 15.7238L11.4388 14.5395H8.33511C8.29565 14.541 8.25628 14.5346 8.21937 14.5205C8.18246 14.5065 8.14876 14.4851 8.12029 14.4578C8.09183 14.4304 8.06918 14.3975 8.05371 14.3612C8.03825 14.3249 8.03027 14.2858 8.03027 14.2463C8.03027 14.2068 8.03825 14.1677 8.05371 14.1314C8.06918 14.095 8.09183 14.0622 8.12029 14.0348C8.14876 14.0074 8.18246 13.9861 8.21937 13.9721C8.25628 13.958 8.29565 13.9516 8.33511 13.9531H8.62851V9.26417H8.33511C8.29565 9.26571 8.25628 9.25926 8.21937 9.24522C8.18246 9.23118 8.14876 9.20984 8.12029 9.18246C8.09183 9.15509 8.06918 9.12225 8.05371 9.08591C8.03825 9.04957 8.03027 9.01049 8.03027 8.97099C8.03027 8.9315 8.03825 8.89242 8.05371 8.85608C8.06918 8.81974 8.09183 8.7869 8.12029 8.75953C8.14876 8.73215 8.18246 8.7108 8.21937 8.69677C8.25628 8.68273 8.29565 8.67628 8.33511 8.67782H11.8536V8.38443C11.8521 8.34497 11.8585 8.3056 11.8726 8.26869C11.8866 8.23177 11.9079 8.19807 11.9353 8.16961C11.9627 8.14114 11.9955 8.1185 12.0319 8.10303C12.0682 8.08756 12.1073 8.07959 12.1468 8.07959C12.1863 8.07959 12.2254 8.08756 12.2617 8.10303C12.298 8.1185 12.3309 8.14114 12.3583 8.16961C12.3856 8.19807 12.407 8.23177 12.421 8.26869C12.4351 8.3056 12.4415 8.34497 12.44 8.38443V8.67782H15.9585C16.0342 8.68078 16.1059 8.71296 16.1585 8.76762C16.211 8.82228 16.2404 8.89516 16.2404 8.97099C16.2404 9.04683 16.211 9.11971 16.1585 9.17437C16.1059 9.22903 16.0342 9.26121 15.9585 9.26417H15.6651V13.9531H15.9585C16.0342 13.9561 16.1059 13.9883 16.1585 14.0429C16.211 14.0976 16.2404 14.1705 16.2404 14.2463C16.2404 14.3221 16.211 14.395 16.1585 14.4497C16.1059 14.5043 16.0342 14.5365 15.9585 14.5395L12.8539 14.5377ZM11.7978 10.8428L13.0259 12.0708L13.8426 11.2541C13.8693 11.2246 13.9017 11.2009 13.9378 11.1843C13.974 11.1677 14.0131 11.1587 14.0528 11.1577C14.0926 11.1567 14.1321 11.1638 14.169 11.1786C14.2059 11.1933 14.2394 11.2154 14.2676 11.2435C14.2957 11.2717 14.3178 11.3052 14.3325 11.3421C14.3473 11.379 14.3544 11.4185 14.3534 11.4583C14.3524 11.498 14.3434 11.5371 14.3268 11.5733C14.3102 11.6094 14.2865 11.6418 14.257 11.6685L13.2331 12.6929C13.2059 12.7204 13.1736 12.7422 13.1379 12.7571C13.1023 12.7719 13.064 12.7796 13.0254 12.7796C12.9868 12.7796 12.9485 12.7719 12.9129 12.7571C12.8773 12.7422 12.8449 12.7204 12.8178 12.6929L11.5897 11.4648L9.21351 13.841V13.9513H15.0778V9.26238H9.21396V13.0135L11.3829 10.8437C11.4379 10.7888 11.5124 10.758 11.5901 10.758C11.6678 10.758 11.7423 10.7888 11.7973 10.8437L11.7978 10.8428Z" fill="white"/>
</svg>
