<?xml version="1.0" encoding="UTF-8"?>
<svg width="32" height="32" viewBox="0 0 32 32" fill="none" xmlns="http://www.w3.org/2000/svg">
<path d="M11.7207 25.7835C13.4371 27.17 15.6215 28.0002 17.9998 28.0002C19.5087 28.0002 20.9418 27.6654 22.2269 27.0653L26.8037 27.9809C27.1315 28.0464 27.4705 27.9438 27.7069 27.7074C27.9433 27.471 28.046 27.132 27.9804 26.8042L27.065 22.227C27.665 20.942 27.9998 19.509 27.9998 18.0002C27.9998 15.6224 27.1699 13.4385 25.7839 11.7222C25.9257 12.4597 25.9999 13.2213 25.9999 14.0002C25.9999 14.7535 25.9305 15.4906 25.7977 16.2055C25.93 16.7824 25.9998 17.3832 25.9998 18.0002C25.9998 19.3117 25.685 20.5466 25.1278 21.6365C25.0252 21.8373 24.9934 22.0668 25.0376 22.2879L25.7251 25.7255L22.2878 25.0379C22.0667 24.9936 21.8371 25.0254 21.6364 25.1281C20.5464 25.6854 19.3113 26.0002 17.9998 26.0002C17.3827 26.0002 16.7819 25.9304 16.2049 25.7981C15.4901 25.9308 14.7531 26.0002 13.9999 26.0002C13.2215 26.0002 12.4594 25.9258 11.7207 25.7835ZM14 4C8.47717 4 4.00002 8.47715 4.00002 14C4.00002 15.5088 4.3348 16.9418 4.93483 18.2267L4.01943 22.8039C3.95386 23.1318 4.05649 23.4707 4.29293 23.7072C4.52936 23.9436 4.86831 24.0462 5.19617 23.9806L9.77298 23.0651C11.058 23.6652 12.4911 24 14 24C19.5229 24 24 19.5228 24 14C24 8.47715 19.5229 4 14 4Z" fill="#4B5563"/>
</svg>
