<?xml version="1.0" encoding="UTF-8"?>
<svg width="32" height="32" viewBox="0 0 32 32" fill="none" xmlns="http://www.w3.org/2000/svg">
<path d="M4.99995 9.10619C4.6356 9.10619 4.29404 9.20378 4 9.37426C3.40416 9.71971 3.00342 10.3644 3.00342 11.1027C3.00342 11.841 3.40416 12.4857 4 12.8312C4.29404 13.0017 4.6356 13.0993 4.99995 13.0993C6.10261 13.0993 6.99649 12.2054 6.99649 11.1027C6.99649 10.0001 6.10261 9.10619 4.99995 9.10619ZM4.99995 7.10619C4.77861 7.10619 4.56147 7.12418 4.34992 7.15878C5.08315 5.30851 6.88877 4 9 4H23C25.7614 4 28 6.23858 28 9V23C28 25.7614 25.7614 28 23 28H9C6.23858 28 4 25.7614 4 23V14.9731C4.31959 15.0555 4.65466 15.0993 4.99995 15.0993C7.20718 15.0993 8.99649 13.3099 8.99649 11.1027C8.99649 8.8955 7.20718 7.10619 4.99995 7.10619ZM11 13C11 13.5523 11.4477 14 12 14H20C20.5523 14 21 13.5523 21 13C21 12.4477 20.5523 12 20 12H12C11.4477 12 11 12.4477 11 13ZM11 19C11 19.5523 11.4477 20 12 20H17.2278C17.7801 20 18.2278 19.5523 18.2278 19C18.2278 18.4477 17.7801 18 17.2278 18H12C11.4477 18 11 18.4477 11 19Z" fill="#4B5563"/>
</svg>
