<svg width="24" height="24" viewBox="0 0 24 24" fill="none" xmlns="http://www.w3.org/2000/svg">
<path d="M12 3C16.9706 3 21 7.02944 21 12C21 16.9706 16.9706 21 12 21C7.02944 21 3 16.9706 3 12C3 7.02944 7.02944 3 12 3ZM8.81606 14.5046C8.58538 14.2118 8.16104 14.1615 7.86826 14.3922C7.57548 14.6228 7.52514 15.0472 7.75582 15.34C8.77321 16.6312 10.3239 17.4006 12 17.4006C13.6739 17.4006 15.2227 16.6333 16.2402 15.345C16.4712 15.0525 16.4214 14.6281 16.1289 14.397C15.8364 14.166 15.412 14.2158 15.181 14.5084C14.4167 15.4759 13.2564 16.0508 12 16.0508C10.7419 16.0508 9.58016 15.4744 8.81606 14.5046ZM9.30082 9.07603C8.67995 9.07603 8.17664 9.57935 8.17664 10.2002C8.17664 10.8211 8.67995 11.3244 9.30082 11.3244C9.92169 11.3244 10.425 10.8211 10.425 10.2002C10.425 9.57935 9.92169 9.07603 9.30082 9.07603ZM14.7 9.07603C14.0791 9.07603 13.5758 9.57935 13.5758 10.2002C13.5758 10.8211 14.0791 11.3244 14.7 11.3244C15.3209 11.3244 15.8242 10.8211 15.8242 10.2002C15.8242 9.57935 15.3209 9.07603 14.7 9.07603Z" fill="#616161"/>
</svg>
