<svg width="24" height="24" viewBox="0 0 24 24" fill="none" xmlns="http://www.w3.org/2000/svg">
<path fill-rule="evenodd" clip-rule="evenodd" d="M21 6.25C21 4.45507 19.5449 3 17.75 3H6.25C4.45507 3 3 4.45507 3 6.25V17.75C3 19.5449 4.45507 21 6.25 21H17.75C19.5449 21 21 19.5449 21 17.75V6.25ZM7.25 15.5C6.83579 15.5 6.5 15.8358 6.5 16.25C6.5 16.6642 6.83579 17 7.25 17H11.75C12.1642 17 12.5 16.6642 12.5 16.25C12.5 15.8358 12.1642 15.5 11.75 15.5H7.25ZM6.5 12.25C6.5 11.8358 6.83579 11.5 7.25 11.5H11.75C12.1642 11.5 12.5 11.8358 12.5 12.25C12.5 12.6642 12.1642 13 11.75 13H7.25C6.83579 13 6.5 12.6642 6.5 12.25ZM7.25 7C6.83579 7 6.5 7.33579 6.5 7.75C6.5 8.16421 6.83579 8.5 7.25 8.5H11.75C12.1642 8.5 12.5 8.16421 12.5 7.75C12.5 7.33579 12.1642 7 11.75 7H7.25Z" fill="#9CA3AF"/>
</svg>
